<svg version="1.1" viewBox="0.0 0.0 632.7637795275591 545.5301837270341" fill="none" stroke="none" stroke-linecap="square" stroke-miterlimit="10" xmlns:xlink="http://www.w3.org/1999/xlink" xmlns="http://www.w3.org/2000/svg"><clipPath id="p.0"><path d="m0 0l632.7638 0l0 545.5302l-632.7638 0l0 -545.5302z" clip-rule="nonzero"/></clipPath><g clip-path="url(#p.0)"><path fill="#000000" fill-opacity="0.0" d="m0 0l632.7638 0l0 545.5302l-632.7638 0z" fill-rule="evenodd"/><path fill="#d9d2e9" d="m0 546.77167l316.0315 -546.77167l316.0315 546.77167z" fill-rule="evenodd"/><path stroke="#000000" stroke-width="1.0" stroke-linejoin="round" stroke-linecap="butt" d="m0 546.77167l316.0315 -546.77167l316.0315 546.77167z" fill-rule="evenodd"/><path fill="#cfe2f3" d="m62.48819 438.64566l253.5433 -438.64566l253.54333 438.64566z" fill-rule="evenodd"/><path stroke="#000000" stroke-width="1.0" stroke-linejoin="round" stroke-linecap="butt" d="m62.48819 438.64566l253.5433 -438.64566l253.54333 438.64566z" fill-rule="evenodd"/><path fill="#c9daf8" d="m130.66142 320.6929l185.37007 -320.6929l185.37009 320.6929z" fill-rule="evenodd"/><path stroke="#000000" stroke-width="1.0" stroke-linejoin="round" stroke-linecap="butt" d="m130.66142 320.6929l185.37007 -320.6929l185.37009 320.6929z" fill-rule="evenodd"/><path fill="#d0e0e3" d="m190.31496 217.48032l125.71654 -217.48032l125.71652 217.48032z" fill-rule="evenodd"/><path stroke="#000000" stroke-width="1.0" stroke-linejoin="round" stroke-linecap="butt" d="m190.31496 217.48032l125.71654 -217.48032l125.71652 217.48032z" fill-rule="evenodd"/><path fill="#d9ead3" d="m247.84251 117.95276l68.18898 -117.95276l68.188965 117.95276z" fill-rule="evenodd"/><path stroke="#000000" stroke-width="1.0" stroke-linejoin="round" stroke-linecap="butt" d="m247.84251 117.95276l68.18898 -117.95276l68.188965 117.95276z" fill-rule="evenodd"/></g></svg>