<svg version="1.1" viewBox="0.0 0.0 615.0 381.0" fill="none" stroke="none" stroke-linecap="square" stroke-miterlimit="10" width="615" height="381" xmlns:xlink="http://www.w3.org/1999/xlink" xmlns="http://www.w3.org/2000/svg"><path fill="#4285f4" d="M307.5 55.75C392.0548 55.75 460.6 124.295204 460.6 208.85C460.6 293.4048 392.0548 361.95 307.5 361.95L307.5 208.85Z" fill-rule="nonzero"/><path fill="#fbbc04" d="M217.51007 332.7105C163.85045 293.72452 141.3971 224.62016 161.89325 161.5395C182.3894 98.45883 241.17307 55.75 307.5 55.75L307.5 208.85Z" fill-rule="nonzero"/><path fill="#ea4335" d="M307.5 361.95C275.16846 361.95 243.66684 351.7145 217.51007 332.7105L307.5 208.85Z" fill-rule="nonzero"/><path fill="#fafafa" d="M25.05 158.84253Q24.8625 158.5144 24.253124 157.81128L25.05 157.34253Q25.753124 157.9519 25.940624 158.3269L25.05 158.84253ZM21.721874 158.09253Q22.003124 158.3269 21.58125 158.37378Q21.253124 159.21753 20.55 160.06128L19.6125 159.4519Q20.26875 158.7019 20.784374 157.62378L21.721874 158.09253ZM25.33125 150.54565L29.08125 150.54565L29.08125 151.29565L27.440624 151.29565L26.925 152.37378L30.3 152.37378L30.3 153.12378L19.51875 153.12378L19.51875 152.37378L22.659374 152.37378L22.284374 151.29565L20.690624 151.29565L20.690624 150.54565L24.39375 150.54565L24.39375 149.7019L25.284374 149.7019Q25.659374 149.74878 25.33125 149.98315L25.33125 150.54565ZM23.596874 152.37378L25.940624 152.37378L26.45625 151.29565L23.221874 151.29565L23.596874 152.37378ZM29.409374 159.8269Q28.846874 158.93628 27.95625 158.04565L28.8 157.48315Q29.7375 158.28003 30.346874 159.2644L29.409374 159.8269ZM23.3625 157.53003Q23.7375 157.5769 23.409374 157.81128L23.409374 158.93628Q23.409374 159.31128 23.7375 159.31128L26.7375 159.31128Q26.971874 159.31128 26.971874 159.12378L27.01875 158.42065L27.95625 158.60815L27.909374 159.31128Q27.8625 160.2019 27.01875 160.2019L23.315624 160.2019Q22.471874 160.2019 22.471874 159.40503L22.471874 157.53003L23.3625 157.53003ZM27.440624 155.84253L22.190624 155.84253L22.190624 156.4519L27.440624 156.4519L27.440624 155.84253ZM28.2375 157.2019L21.39375 157.2019L21.39375 153.73315L28.2375 153.73315L28.2375 157.2019ZM27.440624 155.09253L27.440624 154.48315L22.190624 154.48315L22.190624 155.09253L27.440624 155.09253ZM40.2375 158.3269Q40.14375 160.15503 39.1125 160.15503L35.503124 160.15503Q34.659374 160.15503 34.659374 159.21753L34.659374 155.8894L35.55 155.8894Q35.925 155.93628 35.596874 156.17065L35.596874 158.8894Q35.596874 159.2644 35.925 159.2644L38.7375 159.2644Q39.065624 159.2644 39.1125 158.93628L39.253124 158.09253L40.2375 158.3269ZM33.721874 156.8269Q33.534374 158.3269 32.784374 159.8269L31.846874 159.2644Q32.55 157.9519 32.784374 156.21753L33.76875 156.49878Q34.14375 156.6394 33.721874 156.8269ZM37.51875 152.23315L37.51875 153.96753L41.175 153.96753L41.175 154.85815L32.83125 154.85815L32.83125 153.96753L36.58125 153.96753L36.58125 152.23315L32.08125 152.23315L32.08125 151.34253L36.58125 151.34253L36.58125 149.79565L37.471874 149.79565Q37.846874 149.84253 37.51875 150.0769L37.51875 151.34253L41.925 151.34253L41.925 152.23315L37.51875 152.23315ZM41.45625 159.35815Q40.565624 157.67065 39.721874 156.73315L40.471874 156.0769Q41.503124 157.15503 42.39375 158.60815L41.45625 159.35815ZM37.14375 155.3269Q37.940624 156.21753 38.503124 157.10815L37.659374 157.81128Q37.05 156.78003 36.346874 155.93628L37.14375 155.3269ZM50.409374 152.74878Q49.940624 154.06128 48.909374 155.23315L48.20625 154.3894Q49.8 152.79565 50.221874 149.84253L51.20625 150.17065Q51.628124 150.35815 51.159374 150.4519Q51.01875 151.10815 50.784374 151.85815L54.159374 151.85815L53.925 158.23315Q53.878124 160.10815 52.425 160.10815L51.1125 160.10815L50.971874 159.21753L52.190624 159.21753Q52.846874 159.21753 52.89375 158.37378L53.128124 152.74878L50.409374 152.74878ZM50.971874 157.10815Q50.315624 156.17065 49.51875 155.42065L50.315624 154.5769Q51.253124 155.42065 51.815624 156.21753L50.971874 157.10815ZM45.440624 151.85815Q45.721874 150.96753 45.95625 149.79565L47.08125 150.21753Q47.26875 150.40503 46.940624 150.4519Q46.8 151.06128 46.425 151.85815L48.159374 151.85815L48.159374 159.59253L47.221874 159.59253L47.221874 159.03003L45.159374 159.03003L45.159374 159.96753L44.221874 159.96753L44.221874 151.85815L45.440624 151.85815ZM47.221874 152.74878L45.159374 152.74878L45.159374 154.81128L47.221874 154.81128L47.221874 152.74878ZM47.221874 155.7019L45.159374 155.7019L45.159374 158.1394L47.221874 158.1394L47.221874 155.7019ZM62.690624 154.10815Q63.20625 154.2019 62.784374 154.48315L62.784374 157.2019Q63.95625 157.5769 65.22188 158.23315L64.65938 159.12378Q63.628124 158.5144 62.784374 158.23315Q62.64375 159.21753 62.175 159.68628Q61.6125 160.24878 60.628124 160.24878Q59.315624 160.24878 58.8 159.73315Q58.33125 159.2644 58.33125 158.5144Q58.33125 157.90503 58.8 157.43628Q59.409374 156.8269 60.58125 156.8269Q61.378124 156.8269 61.846874 156.96753L61.846874 154.10815L62.690624 154.10815ZM57.675 152.98315Q56.925 153.0769 55.8 153.0769L55.659374 152.09253Q56.83125 152.09253 58.003124 151.99878Q58.2375 151.15503 58.565624 149.74878L59.409374 150.03003Q59.878124 150.21753 59.409374 150.40503L58.9875 151.90503Q59.784374 151.81128 60.628124 151.5769L60.8625 152.56128Q59.55 152.84253 58.70625 152.8894Q57.95625 155.28003 56.503124 158.09253L55.565624 157.62378Q57.01875 155.04565 57.675 152.98315ZM62.175 151.5769Q63.4875 151.99878 65.31563 152.7019L64.89375 153.68628Q62.925 152.84253 61.8 152.5144L62.175 151.5769ZM61.846874 157.85815Q61.284374 157.67065 60.58125 157.67065Q59.83125 157.67065 59.55 157.9519Q59.315624 158.18628 59.315624 158.5144Q59.315624 158.84253 59.503124 159.03003Q59.784374 159.31128 60.4875 159.31128Q61.14375 159.31128 61.425 159.03003Q61.846874 158.60815 61.846874 157.85815ZM69.94063 150.78003Q73.3625 150.54565 75.84688 150.03003L76.40938 150.92065Q76.50313 151.2019 76.12813 151.0144Q75.05 151.2019 73.925 151.34253L73.925 153.21753L77.39375 153.21753L77.39375 154.10815L73.925 154.10815L73.925 155.93628L76.31563 155.93628L76.31563 160.24878L75.37813 160.24878L75.37813 159.87378L71.58125 159.87378L71.58125 160.3894L70.64375 160.3894L70.64375 155.93628L72.9875 155.93628L72.9875 154.10815L69.65938 154.10815L69.65938 153.21753L72.9875 153.21753L72.9875 151.43628Q71.4875 151.53003 70.12813 151.67065L69.94063 150.78003ZM71.58125 158.98315L75.37813 158.98315L75.37813 156.8269L71.58125 156.8269L71.58125 158.98315ZM66.70625 159.4519Q67.925 157.7644 68.675 156.0769L69.56563 156.6394Q68.53438 158.98315 67.83125 160.0144Q67.925 160.29565 67.69063 160.24878L66.70625 159.4519ZM67.59688 152.8894Q68.3 153.2644 69.2375 154.0144L68.62813 154.9519Q67.69063 154.24878 66.9875 153.78003L67.59688 152.8894ZM67.925 150.12378Q68.4875 150.4519 69.56563 151.29565L68.95625 152.3269Q67.925 151.48315 67.31563 151.0144L67.925 150.12378ZM83.58125 159.6394Q84.05 159.40503 84.56563 158.93628L79.31563 159.92065Q79.26875 160.24878 79.08125 160.06128L78.8 159.03003L81.51875 158.7019L81.51875 157.85815L79.31563 157.85815L79.31563 157.10815L81.51875 157.10815L81.51875 156.40503L80.44063 156.40503L79.40938 156.40503L79.40938 153.0769L81.51875 153.0769L81.51875 152.42065L78.8 152.42065L78.8 151.67065L81.51875 151.67065L81.51875 151.10815Q80.34688 151.15503 79.175 151.2019L79.03438 150.40503Q81.33125 150.40503 83.95625 149.8894L84.37813 150.68628Q84.51875 150.96753 84.09688 150.78003Q83.1125 150.92065 82.31563 151.0144L82.31563 151.67065L84.89375 151.67065L84.89375 152.42065L82.31563 152.42065L82.31563 153.0769L84.47188 153.0769L84.47188 156.40503L82.31563 156.40503L82.31563 157.10815L84.65938 157.10815L84.65938 157.85815L82.31563 157.85815L82.31563 158.56128L84.65938 158.18628L84.65938 158.84253Q86.01875 157.62378 86.06563 155.1394L86.1125 153.31128L84.9875 153.31128L84.9875 152.42065L86.1125 152.42065L86.1125 150.03003L87.00313 150.03003Q87.37813 150.0769 87.05 150.31128L87.05 152.42065L89.1125 152.42065L89.01875 158.60815Q88.97188 160.29565 87.8 160.29565L86.53438 160.29565L86.39375 159.40503L87.47188 159.40503Q88.03438 159.40503 88.08125 158.42065L88.22188 153.31128L87.05 153.31128L87.00313 155.5144Q86.95625 158.74878 84.14375 160.53003L83.58125 159.6394ZM82.31563 154.99878L82.31563 155.84253L83.675 155.84253L83.675 154.99878L82.31563 154.99878ZM82.31563 153.6394L82.31563 154.43628L83.675 154.43628L83.675 153.6394L82.31563 153.6394ZM80.20625 154.99878L80.20625 155.84253L81.51875 155.84253L81.51875 154.99878L80.20625 154.99878ZM80.20625 153.6394L80.20625 154.43628L81.51875 154.43628L81.51875 153.6394L80.20625 153.6394Z" fill-rule="nonzero"/><path fill="#fafafa" d="M22.925 176.40503L22.925 174.34253L19.20625 174.34253L19.20625 173.37378L23.128124 167.81128L23.9875 167.81128L23.9875 173.37378L25.14375 173.37378L25.14375 174.34253L23.9875 174.34253L23.9875 176.40503L22.925 176.40503ZM22.925 173.37378L22.925 169.5144L20.2375 173.37378L22.925 173.37378ZM26.55 172.17065Q26.55 170.6394 26.8625 169.71753Q27.175 168.78003 27.784374 168.28003Q28.409374 167.78003 29.346874 167.78003Q30.034374 167.78003 30.55 168.06128Q31.08125 168.34253 31.425 168.87378Q31.76875 169.3894 31.95625 170.1394Q32.14375 170.8894 32.14375 172.17065Q32.14375 173.68628 31.83125 174.60815Q31.534374 175.53003 30.909374 176.04565Q30.3 176.54565 29.346874 176.54565Q28.1125 176.54565 27.39375 175.65503Q26.55 174.59253 26.55 172.17065ZM27.628124 172.17065Q27.628124 174.28003 28.128124 174.98315Q28.628124 175.68628 29.346874 175.68628Q30.08125 175.68628 30.565624 174.98315Q31.065624 174.28003 31.065624 172.17065Q31.065624 170.04565 30.565624 169.35815Q30.08125 168.65503 29.33125 168.65503Q28.6125 168.65503 28.175 169.2644Q27.628124 170.04565 27.628124 172.17065ZM34.14375 176.40503L34.14375 175.2019L35.346874 175.2019L35.346874 176.40503L34.14375 176.40503ZM36.55 172.17065Q36.55 170.6394 36.8625 169.71753Q37.175 168.78003 37.784374 168.28003Q38.409374 167.78003 39.346874 167.78003Q40.034374 167.78003 40.55 168.06128Q41.08125 168.34253 41.425 168.87378Q41.76875 169.3894 41.95625 170.1394Q42.14375 170.8894 42.14375 172.17065Q42.14375 173.68628 41.83125 174.60815Q41.534374 175.53003 40.909374 176.04565Q40.3 176.54565 39.346874 176.54565Q38.1125 176.54565 37.39375 175.65503Q36.55 174.59253 36.55 172.17065ZM37.628124 172.17065Q37.628124 174.28003 38.128124 174.98315Q38.628124 175.68628 39.346874 175.68628Q40.08125 175.68628 40.565624 174.98315Q41.065624 174.28003 41.065624 172.17065Q41.065624 170.04565 40.565624 169.35815Q40.08125 168.65503 39.33125 168.65503Q38.6125 168.65503 38.175 169.2644Q37.628124 170.04565 37.628124 172.17065ZM43.753124 169.87378Q43.753124 168.9519 44.20625 168.31128Q44.675 167.67065 45.55 167.67065Q46.3625 167.67065 46.89375 168.24878Q47.425 168.8269 47.425 169.93628Q47.425 171.03003 46.878124 171.62378Q46.346874 172.2019 45.565624 172.2019Q44.784374 172.2019 44.26875 171.62378Q43.753124 171.04565 43.753124 169.87378ZM45.58125 168.3894Q45.190624 168.3894 44.925 168.73315Q44.675 169.0769 44.675 169.98315Q44.675 170.81128 44.925 171.15503Q45.190624 171.48315 45.58125 171.48315Q45.9875 171.48315 46.2375 171.1394Q46.503124 170.79565 46.503124 169.90503Q46.503124 169.06128 46.2375 168.73315Q45.971874 168.3894 45.58125 168.3894ZM45.58125 176.71753L50.284374 167.67065L51.14375 167.67065L46.45625 176.71753L45.58125 176.71753ZM49.3 174.3894Q49.3 173.46753 49.753124 172.8269Q50.221874 172.18628 51.1125 172.18628Q51.925 172.18628 52.45625 172.7644Q52.9875 173.3269 52.9875 174.4519Q52.9875 175.54565 52.440624 176.1394Q51.909374 176.71753 51.1125 176.71753Q50.346874 176.71753 49.815624 176.1394Q49.3 175.56128 49.3 174.3894ZM51.14375 172.90503Q50.7375 172.90503 50.471874 173.24878Q50.221874 173.59253 50.221874 174.49878Q50.221874 175.31128 50.4875 175.65503Q50.753124 175.99878 51.14375 175.99878Q51.534374 175.99878 51.8 175.65503Q52.065624 175.31128 52.065624 174.40503Q52.065624 173.5769 51.8 173.24878Q51.534374 172.90503 51.14375 172.90503Z" fill-rule="nonzero"/><path stroke="#ffffff" stroke-width="1.0" stroke-linecap="butt" d="M19.05 163.90503L148.4 163.90503L169.17358 163.90503" fill-rule="nonzero"/><path fill="#fafafa" d="M171.17358 163.90503C171.17358 162.80046 170.27815 161.90503 169.17358 161.90503C168.06902 161.90503 167.17358 162.80046 167.17358 163.90503C167.17358 165.0096 168.06902 165.90503 169.17358 165.90503C170.27815 165.90503 171.17358 165.0096 171.17358 163.90503" fill-rule="nonzero"/><path fill="#fafafa" d="M20.221874 341.7625Q21.76875 340.77814 22.940624 338.66876Q22.003124 337.825 21.39375 337.45Q21.065624 338.2469 20.503124 338.90314L19.659374 338.29376Q21.20625 336.3719 21.675 333.1375L22.659374 333.41876Q22.89375 333.60626 22.565624 333.7469L22.378124 334.6375L24.159374 334.6375L24.346874 334.45L25.003124 335.0125Q25.14375 335.15314 24.909374 335.29376Q24.20625 340.2625 20.83125 342.60626L20.221874 341.7625ZM29.64375 339.79376Q28.284374 338.85626 27.628124 338.2469L27.628124 342.79376L26.690624 342.79376L26.690624 337.3094Q25.8 336.1844 25.096874 334.96564L25.846874 334.40314Q26.26875 335.15314 26.690624 335.71564L26.690624 332.48126L27.58125 332.48126Q27.95625 332.52814 27.628124 332.7625L27.628124 336.79376Q27.95625 337.45 30.346874 338.85626L29.64375 339.79376ZM23.315624 337.73126Q23.7375 336.65314 23.925 335.52814L22.14375 335.52814L21.76875 336.5594Q22.378124 336.9344 23.315624 337.73126ZM38.409374 335.29376Q37.940624 336.60626 36.909374 337.77814L36.20625 336.9344Q37.8 335.34064 38.221874 332.3875L39.20625 332.71564Q39.628124 332.90314 39.159374 332.9969Q39.01875 333.65314 38.784374 334.40314L42.159374 334.40314L41.925 340.77814Q41.878124 342.65314 40.425 342.65314L39.1125 342.65314L38.971874 341.7625L40.190624 341.7625Q40.846874 341.7625 40.89375 340.91876L41.128124 335.29376L38.409374 335.29376ZM38.971874 339.65314Q38.315624 338.71564 37.51875 337.96564L38.315624 337.1219Q39.253124 337.96564 39.815624 338.7625L38.971874 339.65314ZM33.440624 334.40314Q33.721874 333.5125 33.95625 332.34064L35.08125 332.7625Q35.26875 332.95 34.940624 332.9969Q34.8 333.60626 34.425 334.40314L36.159374 334.40314L36.159374 342.1375L35.221874 342.1375L35.221874 341.575L33.159374 341.575L33.159374 342.5125L32.221874 342.5125L32.221874 334.40314L33.440624 334.40314ZM35.221874 335.29376L33.159374 335.29376L33.159374 337.35626L35.221874 337.35626L35.221874 335.29376ZM35.221874 338.2469L33.159374 338.2469L33.159374 340.6844L35.221874 340.6844L35.221874 338.2469ZM51.065624 343.075L50.128124 343.075L50.128124 340.6844Q49.003124 341.95 47.26875 342.46564L46.89375 341.52814Q49.14375 340.91876 50.034374 339.5594L48.253124 339.5594L48.253124 337.1219L53.315624 337.1219L53.315624 339.41876L54.065624 340.075Q54.1125 340.3094 53.83125 340.21564Q53.034374 340.6844 52.378124 340.91876Q53.221874 341.48126 54.440624 341.7625L54.1125 342.7469Q52.14375 342.09064 51.065624 340.77814L51.065624 343.075ZM51.815624 340.45Q52.190624 340.2625 53.08125 339.5594L50.971874 339.5594Q51.346874 340.075 51.815624 340.45ZM47.221874 335.8094L54.3 335.8094L54.3 336.5594L47.221874 336.5594L47.221874 335.8094ZM47.128124 337.59064L46.003124 337.59064L46.003124 340.21564L47.315624 339.7469L47.503124 340.59064L44.221874 341.95Q44.175 342.1844 43.9875 342.04376L43.6125 340.96564L45.065624 340.54376L45.065624 337.59064L43.940624 337.59064L43.940624 336.7L45.065624 336.7L45.065624 334.075L43.753124 334.075L43.753124 333.1844L47.26875 333.1844L47.26875 334.075L46.003124 334.075L46.003124 336.7L47.128124 336.7L47.128124 337.59064ZM52.51875 337.8719L49.05 337.8719L49.05 338.8094L52.51875 338.8094L52.51875 337.8719ZM53.784374 335.2469L47.784374 335.2469L47.784374 332.52814L53.784374 332.52814L53.784374 335.2469ZM52.9875 333.27814L52.05 333.27814L52.05 334.4969L52.9875 334.4969L52.9875 333.27814ZM51.253124 333.27814L50.315624 333.27814L50.315624 334.4969L51.253124 334.4969L51.253124 333.27814ZM49.51875 333.27814L48.58125 333.27814L48.58125 334.4969L49.51875 334.4969L49.51875 333.27814ZM59.596874 340.16876Q56.925 340.96564 56.128124 341.2Q55.9875 341.575 55.89375 341.2469L55.6125 340.2625Q56.503124 340.075 57.20625 339.8875L57.20625 335.85626L55.89375 335.85626L55.89375 334.96564L57.20625 334.96564L57.20625 332.575L58.096874 332.575Q58.471874 332.6219 58.14375 332.85626L58.14375 334.96564L59.315624 334.96564L59.315624 335.34064L61.2375 335.34064L60.675 334.16876L59.83125 334.16876L59.83125 333.41876L62.175 333.41876L62.175 332.15314L63.065624 332.15314Q63.440624 332.2 63.1125 332.4344L63.1125 333.41876L65.78438 333.41876L65.78438 334.16876L64.6125 334.16876L64.09688 335.34064L66.39375 335.34064L66.39375 336.09064L59.315624 336.09064L59.315624 335.85626L58.14375 335.85626L58.14375 339.65314Q59.034374 339.41876 59.596874 339.27814L59.596874 340.16876ZM63.065624 340.16876L62.08125 340.16876Q61.9875 342.79376 58.6125 342.9344L58.378124 341.9969Q61.190624 341.90314 61.14375 340.16876L60.628124 340.16876L60.1125 340.16876L60.1125 336.7L65.3625 336.7L65.3625 340.16876L64.00313 340.16876L64.00313 341.575Q64.00313 341.90314 64.425 341.90314L64.94063 341.90314Q65.12813 341.90314 65.22188 341.6219L65.40938 341.0594L66.39375 341.34064L66.1125 342.1375Q65.87813 342.79376 65.03438 342.79376L63.95625 342.79376Q63.065624 342.79376 63.065624 341.90314L63.065624 340.16876ZM61.753124 334.16876L62.26875 335.34064L63.065624 335.34064L63.4875 334.16876L61.753124 334.16876ZM61.05 338.71564L61.05 339.41876L64.425 339.41876L64.425 338.71564L61.05 338.71564ZM61.05 337.45L61.05 338.15314L64.425 338.15314L64.425 337.45L61.05 337.45Z" fill-rule="nonzero"/><path fill="#fafafa" d="M23.51875 358.95L22.471874 358.95L22.471874 352.23126Q22.08125 352.59064 21.45625 352.96564Q20.846874 353.325 20.3625 353.4969L20.3625 352.48126Q21.2375 352.0594 21.89375 351.48126Q22.565624 350.8875 22.846874 350.325L23.51875 350.325L23.51875 358.95ZM26.55 354.71564Q26.55 353.1844 26.8625 352.2625Q27.175 351.325 27.784374 350.825Q28.409374 350.325 29.346874 350.325Q30.034374 350.325 30.55 350.60626Q31.08125 350.8875 31.425 351.41876Q31.76875 351.9344 31.95625 352.6844Q32.14375 353.4344 32.14375 354.71564Q32.14375 356.23126 31.83125 357.15314Q31.534374 358.075 30.909374 358.59064Q30.3 359.09064 29.346874 359.09064Q28.1125 359.09064 27.39375 358.2Q26.55 357.1375 26.55 354.71564ZM27.628124 354.71564Q27.628124 356.825 28.128124 357.52814Q28.628124 358.23126 29.346874 358.23126Q30.08125 358.23126 30.565624 357.52814Q31.065624 356.825 31.065624 354.71564Q31.065624 352.59064 30.565624 351.90314Q30.08125 351.2 29.33125 351.2Q28.6125 351.2 28.175 351.8094Q27.628124 352.59064 27.628124 354.71564ZM34.14375 358.95L34.14375 357.7469L35.346874 357.7469L35.346874 358.95L34.14375 358.95ZM36.55 354.71564Q36.55 353.1844 36.8625 352.2625Q37.175 351.325 37.784374 350.825Q38.409374 350.325 39.346874 350.325Q40.034374 350.325 40.55 350.60626Q41.08125 350.8875 41.425 351.41876Q41.76875 351.9344 41.95625 352.6844Q42.14375 353.4344 42.14375 354.71564Q42.14375 356.23126 41.83125 357.15314Q41.534374 358.075 40.909374 358.59064Q40.3 359.09064 39.346874 359.09064Q38.1125 359.09064 37.39375 358.2Q36.55 357.1375 36.55 354.71564ZM37.628124 354.71564Q37.628124 356.825 38.128124 357.52814Q38.628124 358.23126 39.346874 358.23126Q40.08125 358.23126 40.565624 357.52814Q41.065624 356.825 41.065624 354.71564Q41.065624 352.59064 40.565624 351.90314Q40.08125 351.2 39.33125 351.2Q38.6125 351.2 38.175 351.8094Q37.628124 352.59064 37.628124 354.71564ZM43.753124 352.41876Q43.753124 351.4969 44.20625 350.85626Q44.675 350.21564 45.55 350.21564Q46.3625 350.21564 46.89375 350.79376Q47.425 351.3719 47.425 352.48126Q47.425 353.575 46.878124 354.16876Q46.346874 354.7469 45.565624 354.7469Q44.784374 354.7469 44.26875 354.16876Q43.753124 353.59064 43.753124 352.41876ZM45.58125 350.9344Q45.190624 350.9344 44.925 351.27814Q44.675 351.6219 44.675 352.52814Q44.675 353.35626 44.925 353.7Q45.190624 354.02814 45.58125 354.02814Q45.9875 354.02814 46.2375 353.6844Q46.503124 353.34064 46.503124 352.45Q46.503124 351.60626 46.2375 351.27814Q45.971874 350.9344 45.58125 350.9344ZM45.58125 359.2625L50.284374 350.21564L51.14375 350.21564L46.45625 359.2625L45.58125 359.2625ZM49.3 356.9344Q49.3 356.0125 49.753124 355.3719Q50.221874 354.73126 51.1125 354.73126Q51.925 354.73126 52.45625 355.3094Q52.9875 355.8719 52.9875 356.9969Q52.9875 358.09064 52.440624 358.6844Q51.909374 359.2625 51.1125 359.2625Q50.346874 359.2625 49.815624 358.6844Q49.3 358.10626 49.3 356.9344ZM51.14375 355.45Q50.7375 355.45 50.471874 355.79376Q50.221874 356.1375 50.221874 357.04376Q50.221874 357.85626 50.4875 358.2Q50.753124 358.54376 51.14375 358.54376Q51.534374 358.54376 51.8 358.2Q52.065624 357.85626 52.065624 356.95Q52.065624 356.1219 51.8 355.79376Q51.534374 355.45 51.14375 355.45Z" fill-rule="nonzero"/><path stroke="#ffffff" stroke-width="1.0" stroke-linecap="butt" d="M19.05 346.45L148.4 346.45L262.55502 347.17642" fill-rule="nonzero"/><path fill="#fafafa" d="M264.55502 347.17642C264.55502 346.07184 263.6596 345.17642 262.55502 345.17642C261.45044 345.17642 260.55502 346.07184 260.55502 347.17642C260.55502 348.28098 261.45044 349.17642 262.55502 349.17642C263.6596 349.17642 264.55502 348.28098 264.55502 347.17642" fill-rule="nonzero"/><path fill="#fafafa" d="M583.3875 204.39688L583.2 205.2875L577.52814 205.2875Q575.7 205.2875 574.52814 203.975L572.9344 205.2875L572.41876 204.25626L574.0125 203.45938L574.0125 200.27188L572.46564 200.27188L572.46564 199.38126L574.95 199.38126L574.95 203.4125Q575.3719 203.88126 576.075 204.1625L575.79376 203.45938Q576.73126 203.31876 577.9969 202.75626L576.35626 202.75626L576.35626 198.86563L582.075 198.86563L582.075 202.75626L580.575 202.75626Q582.21564 203.31876 582.91876 203.36563L582.6844 204.11563Q581.1375 203.975 579.8719 203.27188L580.2469 202.75626L578.3719 202.75626L578.7469 203.13126Q578.84064 203.31876 578.5594 203.31876Q577.29376 204.06876 576.2625 204.20938Q576.8719 204.39688 577.6219 204.39688L583.3875 204.39688ZM581.23126 196.61563L581.23126 195.9125L579.6375 195.9125L579.6375 196.61563L581.23126 196.61563ZM579.6375 197.74063L583.10626 197.74063L583.10626 198.30313L575.27814 198.30313L575.27814 197.74063L578.7 197.74063L578.7 197.17813L577.52814 197.17813L576.35626 197.17813L576.35626 195.35L578.7 195.35L578.7 194.55313L579.59064 194.55313Q579.96564 194.6 579.6375 194.83438L579.6375 195.35L582.02814 195.35L582.02814 197.17813L579.6375 197.17813L579.6375 197.74063ZM577.15314 195.9125L577.15314 196.61563L578.7 196.61563L578.7 195.9125L577.15314 195.9125ZM577.15314 199.99063L581.27814 199.99063L581.27814 199.42813L577.15314 199.42813L577.15314 199.99063ZM581.27814 202.19376L581.27814 201.63126L577.15314 201.63126L577.15314 202.19376L581.27814 202.19376ZM577.15314 200.55313L577.15314 201.06876L581.27814 201.06876L581.27814 200.55313L577.15314 200.55313ZM574.575 197.27188Q573.8719 196.38126 573.16876 195.86563L573.825 195.06876Q574.48126 195.44376 575.27814 196.38126L574.575 197.27188ZM587.5594 195.35Q587.3719 196.6625 586.85626 197.975Q587.325 198.11563 586.85626 198.30313L586.85626 205.2875L585.91876 205.2875L585.91876 199.89688Q585.59064 200.50626 584.9344 201.1625L584.3719 200.13126Q586.29376 198.06876 586.66876 194.74063L587.7 195.11563Q587.98126 195.25626 587.5594 195.35ZM593.09064 201.30313Q594.2625 202.61563 595.34064 204.63126L594.2625 205.33438Q594.075 204.81876 593.7469 204.20938L588.3094 204.77188Q588.2625 205.1 588.075 204.9125L587.5594 203.6L588.73126 203.6Q589.71564 201.20938 589.90314 200.0375L587.41876 200.0375L587.41876 199.00626L595.2 199.00626L595.2 200.0375L591.16876 200.0375Q590.84064 201.1625 589.71564 203.6L593.23126 203.31876Q592.66876 202.475 592.15314 201.81876L593.09064 201.30313ZM594.2625 196.75626L588.35626 196.75626L588.35626 195.725L594.2625 195.725L594.2625 196.75626Z" fill-rule="nonzero"/><path fill="#fafafa" d="M561.45 219.1L562.5594 219.00626Q562.6844 219.81876 563.1219 220.225Q563.575 220.63126 564.21564 220.63126Q564.96564 220.63126 565.4969 220.05313Q566.02814 219.475 566.02814 218.5375Q566.02814 217.63126 565.5125 217.11563Q565.0125 216.58438 564.1844 216.58438Q563.6844 216.58438 563.2625 216.81876Q562.85626 217.05313 562.6219 217.4125L561.6375 217.2875L562.46564 212.88126L566.7469 212.88126L566.7469 213.88126L563.3094 213.88126L562.85626 216.19376Q563.6219 215.64688 564.46564 215.64688Q565.59064 215.64688 566.35626 216.42813Q567.1375 217.20938 567.1375 218.44376Q567.1375 219.6 566.46564 220.45938Q565.6375 221.49063 564.21564 221.49063Q563.04376 221.49063 562.29376 220.83438Q561.5594 220.17813 561.45 219.1ZM568.45 217.11563Q568.45 215.58438 568.7625 214.6625Q569.075 213.725 569.6844 213.225Q570.3094 212.725 571.2469 212.725Q571.9344 212.725 572.45 213.00626Q572.98126 213.2875 573.325 213.81876Q573.66876 214.33438 573.85626 215.08438Q574.04376 215.83438 574.04376 217.11563Q574.04376 218.63126 573.73126 219.55313Q573.4344 220.475 572.8094 220.99063Q572.2 221.49063 571.2469 221.49063Q570.0125 221.49063 569.29376 220.6Q568.45 219.5375 568.45 217.11563ZM569.52814 217.11563Q569.52814 219.225 570.02814 219.92813Q570.52814 220.63126 571.2469 220.63126Q571.98126 220.63126 572.46564 219.92813Q572.96564 219.225 572.96564 217.11563Q572.96564 214.99063 572.46564 214.30313Q571.98126 213.6 571.23126 213.6Q570.5125 213.6 570.075 214.20938Q569.52814 214.99063 569.52814 217.11563ZM576.04376 221.35L576.04376 220.14688L577.2469 220.14688L577.2469 221.35L576.04376 221.35ZM578.45 217.11563Q578.45 215.58438 578.7625 214.6625Q579.075 213.725 579.6844 213.225Q580.3094 212.725 581.2469 212.725Q581.9344 212.725 582.45 213.00626Q582.98126 213.2875 583.325 213.81876Q583.66876 214.33438 583.85626 215.08438Q584.04376 215.83438 584.04376 217.11563Q584.04376 218.63126 583.73126 219.55313Q583.4344 220.475 582.8094 220.99063Q582.2 221.49063 581.2469 221.49063Q580.0125 221.49063 579.29376 220.6Q578.45 219.5375 578.45 217.11563ZM579.52814 217.11563Q579.52814 219.225 580.02814 219.92813Q580.52814 220.63126 581.2469 220.63126Q581.98126 220.63126 582.46564 219.92813Q582.96564 219.225 582.96564 217.11563Q582.96564 214.99063 582.46564 214.30313Q581.98126 213.6 581.23126 213.6Q580.5125 213.6 580.075 214.20938Q579.52814 214.99063 579.52814 217.11563ZM585.65314 214.81876Q585.65314 213.89688 586.10626 213.25626Q586.575 212.61563 587.45 212.61563Q588.2625 212.61563 588.79376 213.19376Q589.325 213.77188 589.325 214.88126Q589.325 215.975 588.77814 216.56876Q588.2469 217.14688 587.46564 217.14688Q586.6844 217.14688 586.16876 216.56876Q585.65314 215.99063 585.65314 214.81876ZM587.48126 213.33438Q587.09064 213.33438 586.825 213.67813Q586.575 214.02188 586.575 214.92813Q586.575 215.75626 586.825 216.1Q587.09064 216.42813 587.48126 216.42813Q587.8875 216.42813 588.1375 216.08438Q588.40314 215.74063 588.40314 214.85Q588.40314 214.00626 588.1375 213.67813Q587.8719 213.33438 587.48126 213.33438ZM587.48126 221.6625L592.1844 212.61563L593.04376 212.61563L588.35626 221.6625L587.48126 221.6625ZM591.2 219.33438Q591.2 218.4125 591.65314 217.77188Q592.1219 217.13126 593.0125 217.13126Q593.825 217.13126 594.35626 217.70938Q594.8875 218.27188 594.8875 219.39688Q594.8875 220.49063 594.34064 221.08438Q593.8094 221.6625 593.0125 221.6625Q592.2469 221.6625 591.71564 221.08438Q591.2 220.50626 591.2 219.33438ZM593.04376 217.85Q592.6375 217.85 592.3719 218.19376Q592.1219 218.5375 592.1219 219.44376Q592.1219 220.25626 592.3875 220.6Q592.65314 220.94376 593.04376 220.94376Q593.4344 220.94376 593.7 220.6Q593.96564 220.25626 593.96564 219.35Q593.96564 218.52188 593.7 218.19376Q593.4344 217.85 593.04376 217.85Z" fill-rule="nonzero"/><path stroke="#ffffff" stroke-width="1.0" stroke-linecap="butt" d="M595.95 208.85L466.6 208.85L452.945 208.85" fill-rule="nonzero"/><path fill="#fafafa" d="M454.945 208.85C454.945 207.74544 454.04956 206.85 452.945 206.85C451.84042 206.85 450.945 207.74544 450.945 208.85C450.945 209.95457 451.84042 210.85 452.945 210.85C454.04956 210.85 454.945 209.95457 454.945 208.85" fill-rule="nonzero"/><path fill="#ffffff" d="M28.190624 21.64375L29.675 21.64375Q30.3 21.721874 29.753124 22.1125L29.753124 24.14375L35.846874 24.14375L35.846874 25.628124L29.753124 25.628124L29.753124 27.503124L37.95625 27.503124L37.95625 28.9875L33.7375 28.9875L32.33125 31.33125L37.253124 31.33125L37.253124 32.815624L29.753124 32.815624L29.753124 34.690624L36.784374 34.690624L36.784374 36.175L29.753124 36.175L29.753124 39.846874L28.190624 39.846874L28.190624 36.175L21.315624 36.175L21.315624 34.690624L28.190624 34.690624L28.190624 32.815624L20.76875 32.815624L20.76875 31.33125L25.846874 31.33125L24.284374 28.9875L20.065624 28.9875L20.065624 27.503124L28.190624 27.503124L28.190624 25.628124L22.096874 25.628124L22.096874 24.14375L28.190624 24.14375L28.190624 21.64375ZM30.6125 31.33125L31.8625 28.9875L26.159374 28.9875L27.721874 31.33125L30.6125 31.33125ZM40.45625 26.565624L40.45625 25.08125L42.878124 25.08125L42.878124 21.8L44.3625 21.8Q44.9875 21.878124 44.440624 22.26875L44.440624 25.08125L45.534374 25.08125L45.76875 24.690624L47.096874 25.70625L46.784374 26.01875Q46.2375 27.7375 44.51875 30.003124Q46.159374 30.70625 47.253124 31.721874L46.39375 33.440624Q45.534374 32.425 44.440624 31.8L44.440624 39.76875L42.878124 39.76875L42.878124 31.878124Q41.940624 32.89375 40.6125 33.909374L39.909374 32.1125Q42.95625 30.08125 44.83125 26.565624L40.45625 26.565624ZM57.878124 24.45625L47.253124 24.45625L47.253124 22.971874L57.878124 22.971874L57.878124 24.45625ZM56.39375 25.940624L56.39375 30.315624L48.58125 30.315624L48.58125 25.940624L56.39375 25.940624ZM55.065624 29.065624L55.065624 27.190624L49.909374 27.190624L49.909374 29.065624L55.065624 29.065624ZM57.565624 31.64375L57.565624 39.378124L56.2375 39.378124L56.2375 38.909374L49.05 38.909374L49.05 39.690624L47.721874 39.690624L47.721874 31.64375L57.565624 31.64375ZM56.2375 37.659374L56.2375 35.8625L53.26875 35.8625L53.26875 37.659374L56.2375 37.659374ZM56.2375 34.6125L56.2375 32.89375L53.26875 32.89375L53.26875 34.6125L56.2375 34.6125ZM51.940624 35.8625L49.05 35.8625L49.05 37.659374L51.940624 37.659374L51.940624 35.8625ZM51.940624 34.6125L51.940624 32.89375L49.05 32.89375L49.05 34.6125L51.940624 34.6125ZM69.83125 27.034374Q68.50313 34.846874 66.62813 36.721874Q65.6125 37.7375 64.51875 37.7375Q63.26875 37.7375 62.565624 37.034374Q60.690624 35.159374 60.690624 32.346874Q60.690624 28.909374 63.1125 26.4875Q65.76875 23.83125 69.59688 23.83125Q73.03438 23.83125 74.9875 25.784374Q77.175 27.971874 77.175 30.940624Q77.175 34.14375 75.14375 36.175Q73.81563 37.503124 71.08125 38.753124L69.44063 37.1125Q72.175 36.253124 73.7375 34.690624Q75.22188 33.20625 75.22188 31.096874Q75.22188 28.596874 73.58125 26.95625Q71.94063 25.315624 68.425 25.471874L69.83125 26.175Q70.76875 26.565624 69.83125 27.034374ZM68.03438 25.55Q66.00313 26.01875 64.51875 27.503124Q62.4875 29.534374 62.4875 32.503124Q62.4875 34.3 63.659374 35.471874Q63.89375 35.70625 64.3625 35.70625Q64.83125 35.70625 65.37813 35.159374Q67.175 33.3625 68.03438 25.55ZM90.45625 37.346874Q87.8 39.3 81.31563 39.846874L81.00313 38.3625Q86.39375 38.05 88.81563 36.8Q87.01875 36.33125 85.3 36.01875L84.83125 36.565624L83.425 35.784374L85.53438 33.440624L80.14375 33.440624L80.14375 32.190624L86.55 32.190624L87.8 30.471874L83.65938 30.471874L83.65938 31.01875L82.33125 31.01875L82.33125 25.784374L86.39375 25.784374L86.39375 24.065624L80.6125 24.065624L80.6125 22.815624L97.40938 22.815624L97.40938 24.065624L91.62813 24.065624L91.62813 25.784374L95.69063 25.784374L95.69063 30.940624L94.3625 30.940624L94.3625 30.471874L88.50313 30.471874L89.28438 30.8625Q89.675 31.096874 89.05 31.253124L88.26875 32.190624L97.95625 32.190624L97.95625 33.440624L93.97188 33.440624Q93.03438 35.003124 91.70625 36.253124Q94.20625 36.95625 97.09688 38.284374L96.08125 39.690624Q93.7375 38.440624 90.45625 37.346874ZM87.4875 33.440624L86.15938 34.925Q87.95625 35.159374 90.14375 35.70625Q91.39375 34.76875 92.09688 33.440624L87.4875 33.440624ZM87.72188 24.065624L87.72188 25.784374L90.3 25.784374L90.3 24.065624L87.72188 24.065624ZM83.65938 29.221874L86.39375 29.221874L86.39375 27.034374L83.65938 27.034374L83.65938 29.221874ZM87.72188 27.034374L87.72188 29.221874L90.3 29.221874L90.3 27.034374L87.72188 27.034374ZM91.62813 27.034374L91.62813 29.221874L94.3625 29.221874L94.3625 27.034374L91.62813 27.034374ZM108.1125 32.58125Q109.59688 31.4875 110.84688 30.08125L112.25313 30.940624Q112.56563 31.33125 111.94063 31.253124Q110.76875 32.26875 108.97188 33.51875L113.89375 33.284374L112.72188 32.26875L113.81563 31.409374Q115.84688 32.815624 117.33125 34.6125L116.08125 35.628124L114.90938 34.378124L109.675 34.76875L109.675 39.690624L108.1125 39.690624L108.1125 34.846874L101.62813 35.08125Q101.55 35.628124 101.2375 35.315624L100.76875 33.596874L106.94063 33.596874Q105.45625 32.190624 103.89375 31.4875L104.75313 30.471874L106.00313 31.096874Q106.70625 30.55 107.40938 29.690624L100.06563 29.690624L100.06563 28.440624L108.1125 28.440624L108.1125 27.26875L102.56563 27.26875L102.56563 26.01875L108.1125 26.01875L108.1125 24.76875L101.55 24.76875L101.55 23.51875L108.1125 23.51875L108.1125 21.878124L109.59688 21.878124Q110.22188 21.95625 109.675 22.346874L109.675 23.51875L116.39375 23.51875L116.39375 24.76875L109.675 24.76875L109.675 26.01875L115.3 26.01875L115.3 27.26875L109.675 27.26875L109.675 28.440624L117.8 28.440624L117.8 29.690624L109.12813 29.690624Q108.1125 30.8625 107.09688 31.8L108.1125 32.58125ZM112.95625 35.39375Q114.90938 37.1125 117.175 37.659374L116.55 39.14375Q113.7375 38.440624 111.94063 36.409374L112.95625 35.39375ZM106.39375 36.8Q106.55 37.190624 105.925 37.1125Q103.7375 38.83125 101.31563 39.378124L100.6125 37.971874Q103.34688 37.26875 105.22188 35.628124L106.39375 36.8Z" fill-rule="nonzero"/></svg>