<svg version="1.1" viewBox="0.0 0.0 310.40157480314963 100.0" fill="none" stroke="none" stroke-linecap="square" stroke-miterlimit="10" xmlns:xlink="http://www.w3.org/1999/xlink" xmlns="http://www.w3.org/2000/svg"><clipPath id="p.0"><path d="m0 0l310.40158 0l0 100.0l-310.40158 0l0 -100.0z" clip-rule="nonzero"/></clipPath><g clip-path="url(#p.0)"><path fill="#000000" fill-opacity="0.0" d="m0 0l310.40158 0l0 100.0l-310.40158 0z" fill-rule="evenodd"/><path fill="#eeeeee" d="m188.25957 25.794195c-1.0246277 -3.6912766 2.3392944 -7.3454247 8.664307 -9.411863c6.3250275 -2.0664377 14.501892 -2.1827593 21.060867 -0.29960442l0 0c2.3232727 -2.1464138 6.5756683 -3.6283703 11.470871 -3.9975882c4.8952026 -0.36921692 9.858231 0.4176731 13.387787 2.1226425l0 0c1.9791718 -1.946043 5.865402 -3.2535381 10.279617 -3.4585104c4.414215 -0.20497131 8.731659 0.7215891 11.420288 2.4508848l0 0c3.5757446 -2.0626802 9.264832 -2.9311447 14.60556 -2.2296076c5.3407593 0.70153713 9.373871 2.8470755 10.354279 5.508236l0 0c4.380707 0.58582115 8.029755 2.075035 10.0043335 4.08288c1.9745789 2.0078468 2.0810242 4.3373623 0.29177856 6.3866806c4.3140564 2.752451 5.3232727 6.4200974 2.6510315 9.634216c-2.6722412 3.214119 -8.624481 5.4918175 -15.635376 5.9830856c-0.04940796 3.0166664 -3.4239807 5.7847214 -8.822998 7.237213c-5.3990173 1.452488 -11.97937 1.3626022 -17.20465 -0.23501968c-2.2257385 3.6129684 -8.490555 6.2713623 -16.087769 6.826641c-7.597229 0.5552788 -15.164886 -1.0921059 -19.433456 -4.2304115l0 0c-5.2323303 1.5468597 -11.510712 1.992466 -17.418869 1.2362976c-5.908142 -0.75616455 -10.948364 -2.650406 -13.983673 -5.255417l0 0c-5.346756 0.30675507 -10.516327 -1.0513268 -12.943115 -3.400238c-2.4267883 -2.3489113 -1.5941772 -5.188629 2.08461 -7.1098175l0 0c-4.769699 -1.3762512 -7.203491 -4.1072044 -6.032257 -6.76877c1.1712341 -2.6615677 5.6820984 -4.6506233 11.180344 -4.9299507z" fill-rule="evenodd"/><path fill="#eeeeee" d="m215.23051 62.198162c0 0.7040062 -0.5707092 1.2747154 -1.274704 1.2747154c-0.70401 0 -1.2747192 -0.5707092 -1.2747192 -1.2747154c0 -0.7040062 0.5707092 -1.2747154 1.2747192 -1.2747154c0.70399475 0 1.274704 0.5707092 1.274704 1.2747154z" fill-rule="evenodd"/><path fill="#eeeeee" d="m218.06113 60.517265c0 1.4080124 -1.1414185 2.5494308 -2.5494232 2.5494308c-1.40802 0 -2.5494385 -1.1414185 -2.5494385 -2.5494308c0 -1.4080124 1.1414185 -2.5494308 2.5494385 -2.5494308c1.4080048 0 2.5494232 1.1414185 2.5494232 2.5494308z" fill-rule="evenodd"/><path fill="#eeeeee" d="m222.62355 56.96542c0 2.1120186 -1.7121277 3.8241463 -3.8241577 3.8241463c-2.1120148 0 -3.8241425 -1.7121277 -3.8241425 -3.8241463c0 -2.1120186 1.7121277 -3.8241463 3.8241425 -3.8241463c2.11203 0 3.8241577 1.7121277 3.8241577 3.8241463z" fill-rule="evenodd"/><path fill="#000000" fill-opacity="0.0" d="m190.59265 38.301067l0 0c-2.6004944 0.099796295 -5.200714 -0.19481277 -7.451523 -0.844265m14.026001 10.083405c-1.0457001 0.20406342 -2.1418457 0.33992767 -3.2601318 0.40408325m31.3517 4.03537l0 0c-0.7865143 -0.5782509 -1.4450073 -1.1961632 -1.9642944 -1.8432045m38.29016 -2.7530365c-0.11566162 0.68585587 -0.37857056 1.3637848 -0.7843323 2.0224648m16.380005 -14.518631l0 0c5.895752 1.4065437 9.616364 4.347145 9.563751 7.5587654m12.995087 -15.60936c-0.95480347 1.0936012 -2.4124146 2.0637226 -4.2585754 2.834301m-5.9604797 -13.351088l0 0c0.16268921 0.4416294 0.23797607 0.8898964 0.224823 1.3385887m-27.422241 -2.8999882l0 0c0.5549011 -0.6175461 1.2897644 -1.1925421 2.1817627 -1.7070847m-22.586975 2.5204802l0 0c0.22636414 -0.51034164 0.5813141 -1.0048895 1.0566254 -1.4722509m-25.004486 1.9724503l0 0c1.3878632 0.39847183 2.6718445 0.87807846 3.8237152 1.4282837m-32.865723 9.797117l0 0c-0.30296326 -0.49151802 -0.5260925 -0.9940109 -0.6673279 -1.5027752" fill-rule="evenodd"/><path stroke="#595959" stroke-width="1.0" stroke-linejoin="round" stroke-linecap="butt" d="m188.25957 25.794195c-1.0246277 -3.6912766 2.3392944 -7.3454247 8.664307 -9.411863c6.3250275 -2.0664377 14.501892 -2.1827593 21.060867 -0.29960442l0 0c2.3232727 -2.1464138 6.5756683 -3.6283703 11.470871 -3.9975882c4.8952026 -0.36921692 9.858231 0.4176731 13.387787 2.1226425l0 0c1.9791718 -1.946043 5.865402 -3.2535381 10.279617 -3.4585104c4.414215 -0.20497131 8.731659 0.7215891 11.420288 2.4508848l0 0c3.5757446 -2.0626802 9.264832 -2.9311447 14.60556 -2.2296076c5.3407593 0.70153713 9.373871 2.8470755 10.354279 5.508236l0 0c4.380707 0.58582115 8.029755 2.075035 10.0043335 4.08288c1.9745789 2.0078468 2.0810242 4.3373623 0.29177856 6.3866806c4.3140564 2.752451 5.3232727 6.4200974 2.6510315 9.634216c-2.6722412 3.214119 -8.624481 5.4918175 -15.635376 5.9830856c-0.04940796 3.0166664 -3.4239807 5.7847214 -8.822998 7.237213c-5.3990173 1.452488 -11.97937 1.3626022 -17.20465 -0.23501968c-2.2257385 3.6129684 -8.490555 6.2713623 -16.087769 6.826641c-7.597229 0.5552788 -15.164886 -1.0921059 -19.433456 -4.2304115l0 0c-5.2323303 1.5468597 -11.510712 1.992466 -17.418869 1.2362976c-5.908142 -0.75616455 -10.948364 -2.650406 -13.983673 -5.255417l0 0c-5.346756 0.30675507 -10.516327 -1.0513268 -12.943115 -3.400238c-2.4267883 -2.3489113 -1.5941772 -5.188629 2.08461 -7.1098175l0 0c-4.769699 -1.3762512 -7.203491 -4.1072044 -6.032257 -6.76877c1.1712341 -2.6615677 5.6820984 -4.6506233 11.180344 -4.9299507z" fill-rule="evenodd"/><path stroke="#595959" stroke-width="1.0" stroke-linejoin="round" stroke-linecap="butt" d="m215.23051 62.198162c0 0.7040062 -0.5707092 1.2747154 -1.274704 1.2747154c-0.70401 0 -1.2747192 -0.5707092 -1.2747192 -1.2747154c0 -0.7040062 0.5707092 -1.2747154 1.2747192 -1.2747154c0.70399475 0 1.274704 0.5707092 1.274704 1.2747154z" fill-rule="evenodd"/><path stroke="#595959" stroke-width="1.0" stroke-linejoin="round" stroke-linecap="butt" d="m218.06113 60.517265c0 1.4080124 -1.1414185 2.5494308 -2.5494232 2.5494308c-1.40802 0 -2.5494385 -1.1414185 -2.5494385 -2.5494308c0 -1.4080124 1.1414185 -2.5494308 2.5494385 -2.5494308c1.4080048 0 2.5494232 1.1414185 2.5494232 2.5494308z" fill-rule="evenodd"/><path stroke="#595959" stroke-width="1.0" stroke-linejoin="round" stroke-linecap="butt" d="m222.62355 56.96542c0 2.1120186 -1.7121277 3.8241463 -3.8241577 3.8241463c-2.1120148 0 -3.8241425 -1.7121277 -3.8241425 -3.8241463c0 -2.1120186 1.7121277 -3.8241463 3.8241425 -3.8241463c2.11203 0 3.8241577 1.7121277 3.8241577 3.8241463z" fill-rule="evenodd"/><path stroke="#595959" stroke-width="1.0" stroke-linejoin="round" stroke-linecap="butt" d="m190.59265 38.301067l0 0c-2.6004944 0.099796295 -5.200714 -0.19481277 -7.451523 -0.844265m14.026001 10.083405c-1.0457001 0.20406342 -2.1418457 0.33992767 -3.2601318 0.40408325m31.3517 4.03537l0 0c-0.7865143 -0.5782509 -1.4450073 -1.1961632 -1.9642944 -1.8432045m38.29016 -2.7530365c-0.11566162 0.68585587 -0.37857056 1.3637848 -0.7843323 2.0224648m16.380005 -14.518631l0 0c5.895752 1.4065437 9.616364 4.347145 9.563751 7.5587654m12.995087 -15.60936c-0.95480347 1.0936012 -2.4124146 2.0637226 -4.2585754 2.834301m-5.9604797 -13.351088l0 0c0.16268921 0.4416294 0.23797607 0.8898964 0.224823 1.3385887m-27.422241 -2.8999882l0 0c0.5549011 -0.6175461 1.2897644 -1.1925421 2.1817627 -1.7070847m-22.586975 2.5204802l0 0c0.22636414 -0.51034164 0.5813141 -1.0048895 1.0566254 -1.4722509m-25.004486 1.9724503l0 0c1.3878632 0.39847183 2.6718445 0.87807846 3.8237152 1.4282837m-32.865723 9.797117l0 0c-0.30296326 -0.49151802 -0.5260925 -0.9940109 -0.6673279 -1.5027752" fill-rule="evenodd"/><path fill="#eeeeee" d="m24.593395 35.098656c-1.2522812 -3.6912766 2.8590755 -7.3454247 10.589485 -9.411861c7.730404 -2.0664387 17.724125 -2.1827602 25.740475 -0.29960442l0 0c2.8394814 -2.1464138 8.036743 -3.6283703 14.019638 -3.997589c5.982895 -0.36921692 12.048676 0.4176731 16.36248 2.1226425l0 0c2.4189453 -1.946043 7.168663 -3.2535381 12.56369 -3.4585094c5.3950195 -0.20497131 10.671791 0.72158813 13.957809 2.4508839l0 0c4.370285 -2.0626793 11.323463 -2.9311447 17.850868 -2.2296066c6.527405 0.7015362 11.456696 2.8470745 12.654938 5.508236l0 0c5.35408 0.58582115 9.813919 2.075035 12.227234 4.08288c2.41333 2.0078468 2.543396 4.3373604 0.35661316 6.3866806c5.2726135 2.752449 6.506073 6.4200974 3.2400665 9.634216c-3.2659912 3.214119 -10.5407715 5.4918175 -19.109467 5.9830856c-0.06037903 3.0166664 -4.184784 5.7847214 -10.783417 7.237213c-6.598648 1.452488 -14.641121 1.3626022 -21.027443 -0.23501968c-2.7202835 3.6129684 -10.377098 6.271366 -19.662392 6.826641c-9.285286 0.55527496 -18.534447 -1.092102 -23.751457 -4.2304115l0 0c-6.394928 1.5468597 -14.068344 1.992466 -21.28925 1.2362976c-7.220909 -0.75616455 -13.381039 -2.650406 -17.090776 -5.255417l0 0c-6.534769 0.30675507 -12.853006 -1.0513268 -15.819012 -3.400238c-2.9660063 -2.3489113 -1.9483957 -5.188629 2.5477982 -7.1098175l0 0c-5.8294992 -1.3762512 -8.804071 -4.1072044 -7.372591 -6.768772c1.4314814 -2.6615639 6.9446373 -4.6506195 13.664562 -4.9299507z" fill-rule="evenodd"/><path fill="#eeeeee" d="m136.41106 70.68762c0 0.70401 -0.5707092 1.2747192 -1.2747192 1.2747192c-0.70401 0 -1.2747192 -0.5707092 -1.2747192 -1.2747192c0 -0.7040024 0.5707092 -1.2747116 1.2747192 -1.2747116c0.70401 0 1.2747192 0.5707092 1.2747192 1.2747116z" fill-rule="evenodd"/><path fill="#eeeeee" d="m134.34299 68.69254c0 1.4080124 -1.1414185 2.5494308 -2.5494385 2.5494308c-1.4080048 0 -2.5494232 -1.1414185 -2.5494232 -2.5494308c0 -1.4080124 1.1414185 -2.5494308 2.5494232 -2.5494308c1.40802 0 2.5494385 1.1414185 2.5494385 2.5494308z" fill-rule="evenodd"/><path fill="#eeeeee" d="m130.08574 65.3909c0 2.1120224 -1.7121277 3.82415 -3.82415 3.82415c-2.1120148 0 -3.8241425 -1.7121277 -3.8241425 -3.82415c0 -2.1120148 1.7121277 -3.8241425 3.8241425 -3.8241425c2.1120224 0 3.82415 1.7121277 3.82415 3.8241425z" fill-rule="evenodd"/><path fill="#000000" fill-opacity="0.0" d="m27.444881 47.60553l0 0c-3.1783123 0.09979248 -6.3562813 -0.19481277 -9.107218 -0.844265m17.142519 10.083405c-1.2780647 0.20406342 -2.617756 0.33992767 -3.9845238 0.40408325m38.31788 4.03537l0 0c-0.96126556 -0.5782509 -1.7660828 -1.1961632 -2.4007416 -1.8432045m46.79802 -2.7530403c-0.14135742 0.6858597 -0.462677 1.3637848 -0.95861053 2.0224686m20.01957 -14.518631l0 0c7.205765 1.4065437 11.753067 4.347145 11.6887665 7.5587654m15.882523 -15.60936c-1.1669464 1.0936012 -2.9484558 2.0637207 -5.2048187 2.834301m-7.2848663 -13.3510895l0 0c0.19885254 0.44163132 0.2908783 0.8898983 0.2748108 1.3385906m-33.515335 -2.8999882l0 0c0.6781845 -0.6175461 1.576355 -1.192543 2.6665344 -1.7070847m-27.60569 2.5204792l0 0c0.27668 -0.51034164 0.71047974 -1.0048885 1.2914124 -1.47225m-30.56036 1.9724483l0 0c1.6962509 0.39847374 3.2655144 0.87808037 4.673321 1.4282856m-40.168297 9.797115l0 0c-0.37028313 -0.4915161 -0.64300156 -0.9940071 -0.81560135 -1.5027733" fill-rule="evenodd"/><path stroke="#595959" stroke-width="1.0" stroke-linejoin="round" stroke-linecap="butt" d="m24.593395 35.098656c-1.2522812 -3.6912766 2.8590755 -7.3454247 10.589485 -9.411861c7.730404 -2.0664387 17.724125 -2.1827602 25.740475 -0.29960442l0 0c2.8394814 -2.1464138 8.036743 -3.6283703 14.019638 -3.997589c5.982895 -0.36921692 12.048676 0.4176731 16.36248 2.1226425l0 0c2.4189453 -1.946043 7.168663 -3.2535381 12.56369 -3.4585094c5.3950195 -0.20497131 10.671791 0.72158813 13.957809 2.4508839l0 0c4.370285 -2.0626793 11.323463 -2.9311447 17.850868 -2.2296066c6.527405 0.7015362 11.456696 2.8470745 12.654938 5.508236l0 0c5.35408 0.58582115 9.813919 2.075035 12.227234 4.08288c2.41333 2.0078468 2.543396 4.3373604 0.35661316 6.3866806c5.2726135 2.752449 6.506073 6.4200974 3.2400665 9.634216c-3.2659912 3.214119 -10.5407715 5.4918175 -19.109467 5.9830856c-0.06037903 3.0166664 -4.184784 5.7847214 -10.783417 7.237213c-6.598648 1.452488 -14.641121 1.3626022 -21.027443 -0.23501968c-2.7202835 3.6129684 -10.377098 6.271366 -19.662392 6.826641c-9.285286 0.55527496 -18.534447 -1.092102 -23.751457 -4.2304115l0 0c-6.394928 1.5468597 -14.068344 1.992466 -21.28925 1.2362976c-7.220909 -0.75616455 -13.381039 -2.650406 -17.090776 -5.255417l0 0c-6.534769 0.30675507 -12.853006 -1.0513268 -15.819012 -3.400238c-2.9660063 -2.3489113 -1.9483957 -5.188629 2.5477982 -7.1098175l0 0c-5.8294992 -1.3762512 -8.804071 -4.1072044 -7.372591 -6.768772c1.4314814 -2.6615639 6.9446373 -4.6506195 13.664562 -4.9299507z" fill-rule="evenodd"/><path stroke="#595959" stroke-width="1.0" stroke-linejoin="round" stroke-linecap="butt" d="m136.41106 70.68762c0 0.70401 -0.5707092 1.2747192 -1.2747192 1.2747192c-0.70401 0 -1.2747192 -0.5707092 -1.2747192 -1.2747192c0 -0.7040024 0.5707092 -1.2747116 1.2747192 -1.2747116c0.70401 0 1.2747192 0.5707092 1.2747192 1.2747116z" fill-rule="evenodd"/><path stroke="#595959" stroke-width="1.0" stroke-linejoin="round" stroke-linecap="butt" d="m134.34299 68.69254c0 1.4080124 -1.1414185 2.5494308 -2.5494385 2.5494308c-1.4080048 0 -2.5494232 -1.1414185 -2.5494232 -2.5494308c0 -1.4080124 1.1414185 -2.5494308 2.5494232 -2.5494308c1.40802 0 2.5494385 1.1414185 2.5494385 2.5494308z" fill-rule="evenodd"/><path stroke="#595959" stroke-width="1.0" stroke-linejoin="round" stroke-linecap="butt" d="m130.08574 65.3909c0 2.1120224 -1.7121277 3.82415 -3.82415 3.82415c-2.1120148 0 -3.8241425 -1.7121277 -3.8241425 -3.82415c0 -2.1120148 1.7121277 -3.8241425 3.8241425 -3.8241425c2.1120224 0 3.82415 1.7121277 3.82415 3.8241425z" fill-rule="evenodd"/><path stroke="#595959" stroke-width="1.0" stroke-linejoin="round" stroke-linecap="butt" d="m27.444881 47.60553l0 0c-3.1783123 0.09979248 -6.3562813 -0.19481277 -9.107218 -0.844265m17.142519 10.083405c-1.2780647 0.20406342 -2.617756 0.33992767 -3.9845238 0.40408325m38.31788 4.03537l0 0c-0.96126556 -0.5782509 -1.7660828 -1.1961632 -2.4007416 -1.8432045m46.79802 -2.7530403c-0.14135742 0.6858597 -0.462677 1.3637848 -0.95861053 2.0224686m20.01957 -14.518631l0 0c7.205765 1.4065437 11.753067 4.347145 11.6887665 7.5587654m15.882523 -15.60936c-1.1669464 1.0936012 -2.9484558 2.0637207 -5.2048187 2.834301m-7.2848663 -13.3510895l0 0c0.19885254 0.44163132 0.2908783 0.8898983 0.2748108 1.3385906m-33.515335 -2.8999882l0 0c0.6781845 -0.6175461 1.576355 -1.192543 2.6665344 -1.7070847m-27.60569 2.5204792l0 0c0.27668 -0.51034164 0.71047974 -1.0048885 1.2914124 -1.47225m-30.56036 1.9724483l0 0c1.6962509 0.39847374 3.2655144 0.87808037 4.673321 1.4282856m-40.168297 9.797115l0 0c-0.37028313 -0.4915161 -0.64300156 -0.9940071 -0.81560135 -1.5027733" fill-rule="evenodd"/><path fill="#ea9999" d="m94.13036 36.632095c4.921257 -14.091864 24.114174 0 0 18.11811c-24.114174 -18.11811 -4.9212646 -32.209976 0 -18.11811z" fill-rule="evenodd"/><path stroke="#595959" stroke-width="1.0" stroke-linejoin="round" stroke-linecap="butt" d="m94.13036 36.632095c4.921257 -14.091864 24.114174 0 0 18.11811c-24.114174 -18.11811 -4.9212646 -32.209976 0 -18.11811z" fill-rule="evenodd"/><path fill="#ea9999" d="m240.50438 27.327635c4.9212646 -14.091865 24.114182 0 0 18.118109c-24.114182 -18.118109 -4.9212646 -32.209972 0 -18.118109z" fill-rule="evenodd"/><path stroke="#595959" stroke-width="1.0" stroke-linejoin="round" stroke-linecap="butt" d="m240.50438 27.327635c4.9212646 -14.091865 24.114182 0 0 18.118109c-24.114182 -18.118109 -4.9212646 -32.209972 0 -18.118109z" fill-rule="evenodd"/></g></svg>