<svg version="1.1" viewBox="0.0 0.0 322.32020997375326 160.59055118110237" fill="none" stroke="none" stroke-linecap="square" stroke-miterlimit="10" xmlns:xlink="http://www.w3.org/1999/xlink" xmlns="http://www.w3.org/2000/svg"><clipPath id="p.0"><path d="m0 0l322.32022 0l0 160.59055l-322.32022 0l0 -160.59055z" clip-rule="nonzero"/></clipPath><g clip-path="url(#p.0)"><path fill="#000000" fill-opacity="0.0" d="m0 0l322.32022 0l0 160.59055l-322.32022 0z" fill-rule="evenodd"/><path fill="#eeeeee" d="m203.5299 22.056664c-1.0246124 -3.6912785 2.3392944 -7.3454266 8.664322 -9.411864c6.325012 -2.0664377 14.501877 -2.1827593 21.060852 -0.29960442l0 0c2.3232727 -2.1464138 6.5756683 -3.6283712 11.470871 -3.9975882c4.8952026 -0.3692174 9.858231 0.4176731 13.387787 2.1226425l0 0c1.979187 -1.946043 5.8654175 -3.2535386 10.279602 -3.4585104c4.414215 -0.20497179 8.731689 0.7215891 11.420288 2.4508848l0 0c3.5757751 -2.0626807 9.264862 -2.9311452 14.605591 -2.229608c5.3407288 0.70153713 9.373871 2.847076 10.354279 5.5082364l0 0c4.380707 0.58582115 8.029755 2.075035 10.0043335 4.082881c1.9745789 2.007845 2.0809937 4.3373604 0.29177856 6.3866787c4.314026 2.752451 5.3232727 6.4200974 2.651001 9.634216c-2.6722412 3.214119 -8.624451 5.4918175 -15.635345 5.9830856c-0.04940796 3.0166702 -3.4240112 5.7847214 -8.822998 7.237213c-5.3990173 1.4524918 -11.97937 1.3626022 -17.204681 -0.23501968c-2.225708 3.6129723 -8.49054 6.2713623 -16.087769 6.826641c-7.5972137 0.5552788 -15.164871 -1.0921059 -19.433441 -4.2304077l0 0c-5.2323303 1.5468559 -11.510712 1.9924622 -17.418869 1.2362976c-5.908142 -0.75616837 -10.948364 -2.6504097 -13.983673 -5.255417l0 0c-5.3467407 0.30675125 -10.516327 -1.0513306 -12.943115 -3.4002419c-2.4267883 -2.3489113 -1.5941772 -5.1886253 2.08461 -7.1098175l0 0c-4.769699 -1.3762512 -7.203491 -4.1072044 -6.032257 -6.76877c1.1712341 -2.6615658 5.6820984 -4.6506214 11.180344 -4.9299507z" fill-rule="evenodd"/><path fill="#eeeeee" d="m230.50087 58.46063c0 0.7040062 -0.5707245 1.2747154 -1.2747192 1.2747154c-0.70401 0 -1.2747192 -0.5707092 -1.2747192 -1.2747154c0 -0.7040062 0.5707092 -1.2747154 1.2747192 -1.2747154c0.70399475 0 1.2747192 0.5707092 1.2747192 1.2747154z" fill-rule="evenodd"/><path fill="#eeeeee" d="m233.33147 56.77973c0 1.4080124 -1.1414185 2.5494308 -2.5494232 2.5494308c-1.40802 0 -2.5494385 -1.1414185 -2.5494385 -2.5494308c0 -1.4080124 1.1414185 -2.5494308 2.5494385 -2.5494308c1.4080048 0 2.5494232 1.1414185 2.5494232 2.5494308z" fill-rule="evenodd"/><path fill="#eeeeee" d="m237.89389 53.227886c0 2.1120186 -1.7121277 3.8241463 -3.8241577 3.8241463c-2.1120148 0 -3.8241425 -1.7121277 -3.8241425 -3.8241463c0 -2.1120186 1.7121277 -3.8241463 3.8241425 -3.8241463c2.11203 0 3.8241577 1.7121277 3.8241577 3.8241463z" fill-rule="evenodd"/><path fill="#000000" fill-opacity="0.0" d="m205.86299 34.563534l0 0c-2.6004944 0.099796295 -5.200714 -0.19480896 -7.451523 -0.84426117m14.026001 10.083401c-1.0457001 0.20406342 -2.1418457 0.33992767 -3.2601318 0.40408707m31.3517 4.035366l0 0c-0.7865143 -0.5782509 -1.4450073 -1.1961594 -1.9642944 -1.8432007m38.290146 -2.7530403c-0.11566162 0.6858597 -0.37854004 1.3637848 -0.7843323 2.0224648m16.380035 -14.518631l0 0c5.895752 1.4065475 9.616333 4.347145 9.563751 7.5587654m12.995087 -15.60936c-0.954834 1.0936012 -2.412445 2.0637226 -4.258606 2.834301m-5.9604797 -13.351088l0 0c0.16268921 0.44163036 0.23800659 0.88989735 0.22485352 1.3385897m-27.422241 -2.8999882l0 0c0.5548706 -0.6175461 1.2897644 -1.1925421 2.1817627 -1.7070847m-22.587006 2.5204802l0 0c0.2263794 -0.51034164 0.58132935 -1.0048895 1.0566406 -1.4722509m-25.004486 1.9724493l0 0c1.3878632 0.39847374 2.6718445 0.87808037 3.8237152 1.4282846m-32.865723 9.797116l0 0c-0.30296326 -0.4915161 -0.5260925 -0.994009 -0.6673126 -1.5027752" fill-rule="evenodd"/><path stroke="#595959" stroke-width="1.0" stroke-linejoin="round" stroke-linecap="butt" d="m203.5299 22.056664c-1.0246124 -3.6912785 2.3392944 -7.3454266 8.664322 -9.411864c6.325012 -2.0664377 14.501877 -2.1827593 21.060852 -0.29960442l0 0c2.3232727 -2.1464138 6.5756683 -3.6283712 11.470871 -3.9975882c4.8952026 -0.3692174 9.858231 0.4176731 13.387787 2.1226425l0 0c1.979187 -1.946043 5.8654175 -3.2535386 10.279602 -3.4585104c4.414215 -0.20497179 8.731689 0.7215891 11.420288 2.4508848l0 0c3.5757751 -2.0626807 9.264862 -2.9311452 14.605591 -2.229608c5.3407288 0.70153713 9.373871 2.847076 10.354279 5.5082364l0 0c4.380707 0.58582115 8.029755 2.075035 10.0043335 4.082881c1.9745789 2.007845 2.0809937 4.3373604 0.29177856 6.3866787c4.314026 2.752451 5.3232727 6.4200974 2.651001 9.634216c-2.6722412 3.214119 -8.624451 5.4918175 -15.635345 5.9830856c-0.04940796 3.0166702 -3.4240112 5.7847214 -8.822998 7.237213c-5.3990173 1.4524918 -11.97937 1.3626022 -17.204681 -0.23501968c-2.225708 3.6129723 -8.49054 6.2713623 -16.087769 6.826641c-7.5972137 0.5552788 -15.164871 -1.0921059 -19.433441 -4.2304077l0 0c-5.2323303 1.5468559 -11.510712 1.9924622 -17.418869 1.2362976c-5.908142 -0.75616837 -10.948364 -2.6504097 -13.983673 -5.255417l0 0c-5.3467407 0.30675125 -10.516327 -1.0513306 -12.943115 -3.4002419c-2.4267883 -2.3489113 -1.5941772 -5.1886253 2.08461 -7.1098175l0 0c-4.769699 -1.3762512 -7.203491 -4.1072044 -6.032257 -6.76877c1.1712341 -2.6615658 5.6820984 -4.6506214 11.180344 -4.9299507z" fill-rule="evenodd"/><path stroke="#595959" stroke-width="1.0" stroke-linejoin="round" stroke-linecap="butt" d="m230.50087 58.46063c0 0.7040062 -0.5707245 1.2747154 -1.2747192 1.2747154c-0.70401 0 -1.2747192 -0.5707092 -1.2747192 -1.2747154c0 -0.7040062 0.5707092 -1.2747154 1.2747192 -1.2747154c0.70399475 0 1.2747192 0.5707092 1.2747192 1.2747154z" fill-rule="evenodd"/><path stroke="#595959" stroke-width="1.0" stroke-linejoin="round" stroke-linecap="butt" d="m233.33147 56.77973c0 1.4080124 -1.1414185 2.5494308 -2.5494232 2.5494308c-1.40802 0 -2.5494385 -1.1414185 -2.5494385 -2.5494308c0 -1.4080124 1.1414185 -2.5494308 2.5494385 -2.5494308c1.4080048 0 2.5494232 1.1414185 2.5494232 2.5494308z" fill-rule="evenodd"/><path stroke="#595959" stroke-width="1.0" stroke-linejoin="round" stroke-linecap="butt" d="m237.89389 53.227886c0 2.1120186 -1.7121277 3.8241463 -3.8241577 3.8241463c-2.1120148 0 -3.8241425 -1.7121277 -3.8241425 -3.8241463c0 -2.1120186 1.7121277 -3.8241463 3.8241425 -3.8241463c2.11203 0 3.8241577 1.7121277 3.8241577 3.8241463z" fill-rule="evenodd"/><path stroke="#595959" stroke-width="1.0" stroke-linejoin="round" stroke-linecap="butt" d="m205.86299 34.563534l0 0c-2.6004944 0.099796295 -5.200714 -0.19480896 -7.451523 -0.84426117m14.026001 10.083401c-1.0457001 0.20406342 -2.1418457 0.33992767 -3.2601318 0.40408707m31.3517 4.035366l0 0c-0.7865143 -0.5782509 -1.4450073 -1.1961594 -1.9642944 -1.8432007m38.290146 -2.7530403c-0.11566162 0.6858597 -0.37854004 1.3637848 -0.7843323 2.0224648m16.380035 -14.518631l0 0c5.895752 1.4065475 9.616333 4.347145 9.563751 7.5587654m12.995087 -15.60936c-0.954834 1.0936012 -2.412445 2.0637226 -4.258606 2.834301m-5.9604797 -13.351088l0 0c0.16268921 0.44163036 0.23800659 0.88989735 0.22485352 1.3385897m-27.422241 -2.8999882l0 0c0.5548706 -0.6175461 1.2897644 -1.1925421 2.1817627 -1.7070847m-22.587006 2.5204802l0 0c0.2263794 -0.51034164 0.58132935 -1.0048895 1.0566406 -1.4722509m-25.004486 1.9724493l0 0c1.3878632 0.39847374 2.6718445 0.87808037 3.8237152 1.4282846m-32.865723 9.797116l0 0c-0.30296326 -0.4915161 -0.5260925 -0.994009 -0.6673126 -1.5027752" fill-rule="evenodd"/><path fill="#000000" d="m226.24402 26.683077q-0.640625 0 -0.984375 -0.484375q-0.34375 -0.484375 -0.34375 -1.40625q0 -1.234375 0.578125 -2.140625q0.578125 -0.921875 1.640625 -1.53125l0.484375 0.796875q-0.78125 0.53125 -1.171875 1.125q-0.390625 0.59375 -0.390625 1.515625l0.25 1.375l-0.890625 -1.078125q0.21875 -0.1875 0.390625 -0.265625q0.171875 -0.09375 0.4375 -0.09375q0.421875 0 0.75 0.265625q0.328125 0.265625 0.328125 0.78125q0 0.546875 -0.3125 0.84375q-0.296875 0.296875 -0.765625 0.296875zm3.65625 0q-0.609375 0 -0.96875 -0.484375q-0.34375 -0.484375 -0.34375 -1.40625q0 -1.234375 0.5625 -2.140625q0.578125 -0.921875 1.671875 -1.53125l0.453125 0.796875q-0.765625 0.53125 -1.15625 1.125q-0.390625 0.59375 -0.390625 1.515625l0.234375 1.375l-0.859375 -1.078125q0.1875 -0.1875 0.359375 -0.265625q0.1875 -0.09375 0.4375 -0.09375q0.421875 0 0.75 0.265625q0.34375 0.265625 0.34375 0.78125q0 0.546875 -0.3125 0.84375q-0.296875 0.296875 -0.78125 0.296875zm3.9055634 -1.203125l16.0625 0l0 1.234375l-16.0625 0l0 -1.234375zm1.4375 -3.3125l10.59375 0l0 1.1875l-10.59375 0l0 -1.1875zm4.734375 -2.203125l1.375 0l0 6.125l-1.375 0l0 -6.125zm7.015625 7.921875l0.890625 0.984375q-1.171875 0.3125 -2.703125 0.5625q-1.515625 0.234375 -3.15625 0.421875q-1.625 0.1875 -3.15625 0.296875q-0.03125 -0.21875 -0.140625 -0.5q-0.09375 -0.296875 -0.1875 -0.484375q1.09375 -0.09375 2.265625 -0.21875q1.1875 -0.140625 2.3125 -0.296875q1.140625 -0.15625 2.140625 -0.34375q1.0 -0.203125 1.734375 -0.421875zm0.96875 -7.0625l1.140625 0.65625q-1.890625 2.265625 -4.328125 4.1875q-2.4375 1.90625 -5.203125 3.4375q-2.765625 1.515625 -5.640625 2.609375q-0.09375 -0.140625 -0.265625 -0.359375q-0.15625 -0.21875 -0.328125 -0.421875q-0.171875 -0.203125 -0.328125 -0.328125q2.9375 -1.015625 5.6875 -2.46875q2.75 -1.46875 5.125 -3.3125q2.390625 -1.859375 4.140625 -4.0zm-9.640625 7.125l1.390625 0.15625q-0.203125 0.90625 -0.453125 1.921875q-0.234375 1.0 -0.484375 1.953125q-0.234375 0.9374981 -0.453125 1.6406231l-1.40625 -0.203125q0.25 -0.703125 0.5 -1.6406231q0.25 -0.953125 0.484375 -1.953125q0.25 -1.015625 0.421875 -1.875zm8.125 3.5625l1.421875 0q0 0 -0.015625 0.125q0 0.125 -0.015625 0.28125q-0.015625 0.1406231 -0.046875 0.2343731q-0.203125 1.375 -0.4375 2.28125q-0.21875 0.90625 -0.46875 1.4375q-0.25 0.546875 -0.546875 0.828125q-0.296875 0.265625 -0.625 0.359375q-0.328125 0.09375 -0.828125 0.09375q-0.40625 0.03125 -1.1875 0.015625q-0.78125 -0.015625 -1.65625 -0.0625q-0.015625 -0.296875 -0.140625 -0.65625q-0.109375 -0.359375 -0.28125 -0.640625q0.875 0.09375 1.6875 0.109375q0.8125 0.03125 1.140625 0.03125q0.28125 0 0.46875 -0.03125q0.1875 -0.03125 0.34375 -0.15625q0.34375 -0.28125 0.625 -1.203125q0.296875 -0.9375 0.5625 -2.859373l0 -0.1875zm-8.34375 0l8.734375 0l0 1.2031231l-9.03125 0l0.296875 -1.2031231zm18.968735 -10.59375q0.75 0.171875 1.734375 0.328125q1.0 0.15625 2.046875 0.296875q1.046875 0.140625 1.984375 0.234375q0.9375 0.078125 1.59375 0.125l-0.203125 1.390625q-0.6875 -0.0625 -1.609375 -0.171875q-0.921875 -0.109375 -1.9375 -0.234375q-1.0 -0.140625 -2.0 -0.296875q-1.0 -0.15625 -1.859375 -0.3125l0.25 -1.359375zm7.734375 5.328125q-0.265625 0.1875 -0.5625 0.4375q-0.296875 0.234375 -0.46875 0.40625q-0.28125 0.25 -0.75 0.6875q-0.46875 0.4375 -1.0 0.953125q-0.53125 0.5 -1.015625 0.953125q-0.46875 0.453125 -0.734375 0.734375q0.140625 -0.03125 0.359375 -0.015625q0.21875 0.015625 0.359375 0.046875q0.546875 0.0625 0.890625 0.421875q0.34375 0.34375 0.53125 0.921875q0.09375 0.2656231 0.1875 0.6406231q0.109375 0.375 0.21875 0.75q0.125 0.375 0.21875 0.703125q0.1875 0.515625 0.53125 0.765625q0.359375 0.234375 1.078125 0.234375q0.640625 0 1.28125 -0.046875q0.640625 -0.046875 1.234375 -0.140625q0.59375 -0.09375 1.015625 -0.1875l-0.09375 1.578125q-0.390625 0.046875 -1.03125 0.109375q-0.625 0.078125 -1.296875 0.125q-0.65625 0.046875 -1.171875 0.046875q-1.125 0 -1.828125 -0.34375q-0.6875 -0.328125 -1.0 -1.25q-0.09375 -0.28125 -0.21875 -0.703125q-0.109375 -0.421875 -0.21875 -0.828125q-0.09375 -0.40625 -0.1875 -0.671875q-0.171875 -0.484375 -0.46875 -0.7343731q-0.28125 -0.25 -0.671875 -0.25q-0.390625 0 -0.734375 0.1875q-0.328125 0.171875 -0.640625 0.4843731q-0.21875 0.203125 -0.578125 0.546875q-0.34375 0.34375 -0.765625 0.8125q-0.421875 0.453125 -0.875 0.953125q-0.43748474 0.484375 -0.84373474 0.96875q-0.40625 0.46875 -0.734375 0.875l-1.40625 -0.984375q0.15625 -0.15625 0.390625 -0.359375q0.25 -0.21875 0.53125 -0.484375q0.1875 -0.1875 0.6875 -0.6875q0.515625 -0.515625 1.2343597 -1.21875q0.71875 -0.7187481 1.515625 -1.5312481q0.796875 -0.8125 1.59375 -1.609375q0.8125 -0.796875 1.484375 -1.484375q0.6875 -0.6875 1.15625 -1.15625q-0.4375 0.015625 -1.046875 0.0625q-0.609375 0.046875 -1.28125 0.109375q-0.671875 0.0625 -1.328125 0.125q-0.65625 0.046875 -1.203125 0.078125q-0.546875 0.03125 -0.890625 0.078125q-0.46873474 0.03125 -0.82810974 0.078125q-0.359375 0.046875 -0.6875 0.109375l-0.125 -1.640625q0.3125 0.015625 0.71875 0.03125q0.421875 0.015625 0.87498474 0q0.3125 0 0.953125 -0.03125q0.65625 -0.046875 1.484375 -0.09375q0.84375 -0.0625 1.671875 -0.125q0.84375 -0.0625 1.5625 -0.109375q0.71875 -0.0625 1.125 -0.125q0.25 -0.03125 0.5 -0.078125q0.265625 -0.0625 0.40625 -0.125l0.890625 1.0zm6.890625 0.390625l-0.484375 -0.796875q0.78125 -0.515625 1.171875 -1.109375q0.390625 -0.609375 0.390625 -1.515625l-0.25 -1.359375l0.875 1.03125q-0.203125 0.1875 -0.390625 0.28125q-0.1875 0.09375 -0.40625 0.09375q-0.421875 0 -0.765625 -0.265625q-0.328125 -0.265625 -0.328125 -0.796875q0 -0.515625 0.296875 -0.8125q0.3125 -0.296875 0.796875 -0.296875q0.625 0 0.96875 0.484375q0.34375 0.484375 0.34375 1.375q0 1.234375 -0.578125 2.15625q-0.5625 0.90625 -1.640625 1.53125zm3.65625 0l-0.484375 -0.796875q0.78125 -0.515625 1.171875 -1.109375q0.40625 -0.609375 0.40625 -1.515625l-0.234375 -1.359375l0.84375 1.03125q-0.171875 0.1875 -0.359375 0.28125q-0.1875 0.09375 -0.4375 0.09375q-0.421875 0 -0.765625 -0.265625q-0.328125 -0.265625 -0.328125 -0.796875q0 -0.515625 0.3125 -0.8125q0.3125 -0.296875 0.78125 -0.296875q0.640625 0 0.96875 0.484375q0.34375 0.484375 0.34375 1.375q0 1.234375 -0.5625 2.15625q-0.5625 0.90625 -1.65625 1.53125z" fill-rule="nonzero"/><path fill="#eeeeee" d="m39.863735 31.361124c-1.2522812 -3.6912766 2.8590775 -7.3454247 10.589485 -9.411863c7.7304077 -2.0664368 17.724125 -2.1827583 25.740475 -0.29960442l0 0c2.8394852 -2.1464138 8.036743 -3.6283703 14.019638 -3.9975872c5.982895 -0.36921883 12.048676 0.4176731 16.36248 2.1226425l0 0c2.4189453 -1.946043 7.168663 -3.2535381 12.56369 -3.4585114c5.3950195 -0.20497131 10.671791 0.72159004 13.957802 2.4508858l0 0c4.370285 -2.0626812 11.323471 -2.9311457 17.850876 -2.2296085c6.52742 0.7015381 11.456696 2.8470764 12.654938 5.508236l0 0c5.35408 0.58582115 9.813919 2.075035 12.227234 4.082882c2.41333 2.007845 2.543396 4.3373604 0.35661316 6.3866787c5.2726135 2.7524529 6.506073 6.4200974 3.2400665 9.634216c-3.2659912 3.214119 -10.5407715 5.4918175 -19.109467 5.9830856c-0.06037903 3.0166664 -4.1847687 5.7847214 -10.783417 7.237213c-6.598648 1.4524918 -14.641113 1.3626022 -21.02745 -0.23501968c-2.7202759 3.6129723 -10.37709 6.2713623 -19.662376 6.826641c-9.285294 0.5552788 -18.534454 -1.0921059 -23.751465 -4.2304115l0 0c-6.394928 1.5468597 -14.068344 1.992466 -21.28925 1.2362976c-7.2209053 -0.75616455 -13.381039 -2.650406 -17.090775 -5.255417l0 0c-6.534771 0.30675507 -12.853008 -1.0513268 -15.819014 -3.400238c-2.9660053 -2.3489113 -1.9483948 -5.1886253 2.5478 -7.1098175l0 0c-5.8295 -1.3762512 -8.804073 -4.1072044 -7.372591 -6.768772c1.4314804 -2.6615639 6.9446354 -4.6506195 13.664564 -4.929949z" fill-rule="evenodd"/><path fill="#eeeeee" d="m151.6814 66.95009c0 0.70401 -0.5707092 1.2747192 -1.2747192 1.2747192c-0.70401 0 -1.2747192 -0.5707092 -1.2747192 -1.2747192c0 -0.7040024 0.5707092 -1.2747116 1.2747192 -1.2747116c0.70401 0 1.2747192 0.5707092 1.2747192 1.2747116z" fill-rule="evenodd"/><path fill="#eeeeee" d="m149.61333 64.95501c0 1.4080124 -1.1414185 2.5494385 -2.5494385 2.5494385c-1.4080048 0 -2.5494232 -1.1414261 -2.5494232 -2.5494385c0 -1.4080086 1.1414185 -2.549427 2.5494232 -2.549427c1.40802 0 2.5494385 1.1414185 2.5494385 2.549427z" fill-rule="evenodd"/><path fill="#eeeeee" d="m145.35608 61.65337c0 2.1120186 -1.7121277 3.8241463 -3.8241425 3.8241463c-2.1120148 0 -3.8241425 -1.7121277 -3.8241425 -3.8241463c0 -2.1120186 1.7121277 -3.8241463 3.8241425 -3.8241463c2.1120148 0 3.8241425 1.7121277 3.8241425 3.8241463z" fill-rule="evenodd"/><path fill="#000000" fill-opacity="0.0" d="m42.71522 43.867996l0 0c-3.1783104 0.099796295 -6.3562813 -0.19481277 -9.107216 -0.84426117m17.142517 10.083401c-1.2780609 0.20406342 -2.617756 0.33992767 -3.9845238 0.40408707m38.31788 4.035366l0 0c-0.96126556 -0.5782509 -1.7660828 -1.1961632 -2.4007416 -1.8432045m46.79802 -2.7530365c-0.14135742 0.6858597 -0.462677 1.3637848 -0.95861816 2.0224648m20.019577 -14.518631l0 0c7.205765 1.4065475 11.753067 4.347145 11.688782 7.5587654m15.882523 -15.60936c-1.1669617 1.0936012 -2.948471 2.0637207 -5.204834 2.834301m-7.2848663 -13.351088l0 0c0.19885254 0.4416294 0.2908783 0.8898964 0.2748108 1.3385887m-33.515335 -2.8999882l0 0c0.67819214 -0.6175461 1.576355 -1.1925411 2.6665344 -1.7070847m-27.60569 2.520481l0 0c0.27668 -0.51034164 0.71047974 -1.0048904 1.29142 -1.4722519m-30.560364 1.9724503l0 0c1.6962433 0.39847374 3.2655106 0.87808037 4.673317 1.4282837m-40.168297 9.797115l0 0c-0.37028122 -0.4915161 -0.64299774 -0.994009 -0.81560135 -1.5027733" fill-rule="evenodd"/><path stroke="#595959" stroke-width="1.0" stroke-linejoin="round" stroke-linecap="butt" d="m39.863735 31.361124c-1.2522812 -3.6912766 2.8590775 -7.3454247 10.589485 -9.411863c7.7304077 -2.0664368 17.724125 -2.1827583 25.740475 -0.29960442l0 0c2.8394852 -2.1464138 8.036743 -3.6283703 14.019638 -3.9975872c5.982895 -0.36921883 12.048676 0.4176731 16.36248 2.1226425l0 0c2.4189453 -1.946043 7.168663 -3.2535381 12.56369 -3.4585114c5.3950195 -0.20497131 10.671791 0.72159004 13.957802 2.4508858l0 0c4.370285 -2.0626812 11.323471 -2.9311457 17.850876 -2.2296085c6.52742 0.7015381 11.456696 2.8470764 12.654938 5.508236l0 0c5.35408 0.58582115 9.813919 2.075035 12.227234 4.082882c2.41333 2.007845 2.543396 4.3373604 0.35661316 6.3866787c5.2726135 2.7524529 6.506073 6.4200974 3.2400665 9.634216c-3.2659912 3.214119 -10.5407715 5.4918175 -19.109467 5.9830856c-0.06037903 3.0166664 -4.1847687 5.7847214 -10.783417 7.237213c-6.598648 1.4524918 -14.641113 1.3626022 -21.02745 -0.23501968c-2.7202759 3.6129723 -10.37709 6.2713623 -19.662376 6.826641c-9.285294 0.5552788 -18.534454 -1.0921059 -23.751465 -4.2304115l0 0c-6.394928 1.5468597 -14.068344 1.992466 -21.28925 1.2362976c-7.2209053 -0.75616455 -13.381039 -2.650406 -17.090775 -5.255417l0 0c-6.534771 0.30675507 -12.853008 -1.0513268 -15.819014 -3.400238c-2.9660053 -2.3489113 -1.9483948 -5.1886253 2.5478 -7.1098175l0 0c-5.8295 -1.3762512 -8.804073 -4.1072044 -7.372591 -6.768772c1.4314804 -2.6615639 6.9446354 -4.6506195 13.664564 -4.929949z" fill-rule="evenodd"/><path stroke="#595959" stroke-width="1.0" stroke-linejoin="round" stroke-linecap="butt" d="m151.6814 66.95009c0 0.70401 -0.5707092 1.2747192 -1.2747192 1.2747192c-0.70401 0 -1.2747192 -0.5707092 -1.2747192 -1.2747192c0 -0.7040024 0.5707092 -1.2747116 1.2747192 -1.2747116c0.70401 0 1.2747192 0.5707092 1.2747192 1.2747116z" fill-rule="evenodd"/><path stroke="#595959" stroke-width="1.0" stroke-linejoin="round" stroke-linecap="butt" d="m149.61333 64.95501c0 1.4080124 -1.1414185 2.5494385 -2.5494385 2.5494385c-1.4080048 0 -2.5494232 -1.1414261 -2.5494232 -2.5494385c0 -1.4080086 1.1414185 -2.549427 2.5494232 -2.549427c1.40802 0 2.5494385 1.1414185 2.5494385 2.549427z" fill-rule="evenodd"/><path stroke="#595959" stroke-width="1.0" stroke-linejoin="round" stroke-linecap="butt" d="m145.35608 61.65337c0 2.1120186 -1.7121277 3.8241463 -3.8241425 3.8241463c-2.1120148 0 -3.8241425 -1.7121277 -3.8241425 -3.8241463c0 -2.1120186 1.7121277 -3.8241463 3.8241425 -3.8241463c2.1120148 0 3.8241425 1.7121277 3.8241425 3.8241463z" fill-rule="evenodd"/><path stroke="#595959" stroke-width="1.0" stroke-linejoin="round" stroke-linecap="butt" d="m42.71522 43.867996l0 0c-3.1783104 0.099796295 -6.3562813 -0.19481277 -9.107216 -0.84426117m17.142517 10.083401c-1.2780609 0.20406342 -2.617756 0.33992767 -3.9845238 0.40408707m38.31788 4.035366l0 0c-0.96126556 -0.5782509 -1.7660828 -1.1961632 -2.4007416 -1.8432045m46.79802 -2.7530365c-0.14135742 0.6858597 -0.462677 1.3637848 -0.95861816 2.0224648m20.019577 -14.518631l0 0c7.205765 1.4065475 11.753067 4.347145 11.688782 7.5587654m15.882523 -15.60936c-1.1669617 1.0936012 -2.948471 2.0637207 -5.204834 2.834301m-7.2848663 -13.351088l0 0c0.19885254 0.4416294 0.2908783 0.8898964 0.2748108 1.3385887m-33.515335 -2.8999882l0 0c0.67819214 -0.6175461 1.576355 -1.1925411 2.6665344 -1.7070847m-27.60569 2.520481l0 0c0.27668 -0.51034164 0.71047974 -1.0048904 1.29142 -1.4722519m-30.560364 1.9724503l0 0c1.6962433 0.39847374 3.2655106 0.87808037 4.673317 1.4282837m-40.168297 9.797115l0 0c-0.37028122 -0.4915161 -0.64299774 -0.994009 -0.81560135 -1.5027733" fill-rule="evenodd"/><path fill="#000000" d="m63.85139 35.987537q-0.640625 0 -0.984375 -0.484375q-0.34375 -0.484375 -0.34375 -1.40625q0 -1.234375 0.578125 -2.140625q0.578125 -0.921875 1.6406212 -1.53125l0.484375 0.796875q-0.78125 0.53125 -1.171875 1.125q-0.3906212 0.59375 -0.3906212 1.515625l0.25 1.375l-0.890625 -1.078125q0.21875 -0.1875 0.390625 -0.265625q0.171875 -0.09375 0.4375 -0.09375q0.4218712 0 0.7499962 0.265625q0.328125 0.265625 0.328125 0.78125q0 0.546875 -0.3125 0.84375q-0.296875 0.296875 -0.7656212 0.296875zm3.6562462 0q-0.609375 0 -0.96875 -0.484375q-0.34375 -0.484375 -0.34375 -1.40625q0 -1.234375 0.5625 -2.140625q0.578125 -0.921875 1.671875 -1.53125l0.453125 0.796875q-0.765625 0.53125 -1.15625 1.125q-0.390625 0.59375 -0.390625 1.515625l0.234375 1.375l-0.859375 -1.078125q0.1875 -0.1875 0.359375 -0.265625q0.1875 -0.09375 0.4375 -0.09375q0.421875 0 0.75 0.265625q0.34375 0.265625 0.34375 0.78125q0 0.546875 -0.3125 0.84375q-0.296875 0.296875 -0.78125 0.296875zm10.858688 -5.59375q-0.0625 0.234375 -0.125 0.53125q-0.046875 0.28125 -0.09375 0.5625q-0.0625 0.34375 -0.171875 0.921875q-0.09375 0.578125 -0.203125 1.21875q-0.109375 0.640625 -0.265625 1.21875q-0.1875 0.796875 -0.46875 1.796875q-0.28125 1.0 -0.640625 2.125q-0.34375 1.109375 -0.796875 2.28125q-0.4375 1.171875 -0.984375 2.328125q-0.546875 1.140625 -1.171875 2.140625l-1.53125 -0.59375q0.65625 -0.859375 1.203125 -1.921875q0.546875 -1.0625 1.015625 -2.203125q0.46875 -1.15625 0.84375 -2.265625q0.390625 -1.125 0.640625 -2.078125q0.265625 -0.953125 0.421875 -1.640625q0.25 -1.125 0.421875 -2.328125q0.171875 -1.203125 0.171875 -2.28125l1.734375 0.1875zm6.421875 1.96875q0.4375 0.578125 0.9375 1.4375q0.5 0.859375 0.96875 1.828125q0.484375 0.96875 0.875 1.875q0.390625 0.890625 0.625 1.546875l-1.453125 0.6875q-0.203125 -0.703125 -0.5625 -1.625q-0.34375 -0.9375 -0.8125 -1.890625q-0.453125 -0.96875 -0.953125 -1.8125q-0.484375 -0.84375 -0.984375 -1.421875l1.359375 -0.625zm-13.140625 2.109375q0.4375 0.046875 0.828125 0.03125q0.390625 -0.015625 0.828125 -0.03125q0.4375 -0.015625 1.078125 -0.0625q0.65625 -0.046875 1.4375 -0.09375q0.78125 -0.0625 1.53125 -0.125q0.75 -0.078125 1.390625 -0.109375q0.65625 -0.046875 1.03125 -0.046875q0.828125 0 1.5 0.265625q0.6875 0.25 1.09375 0.9375q0.421875 0.6875 0.421875 1.9375q0 1.109375 -0.109375 2.390625q-0.09375 1.265625 -0.34375 2.421875q-0.234375 1.15625 -0.625 1.921875q-0.4375 0.953125 -1.125 1.265625q-0.6875 0.3125 -1.609375 0.3125q-0.515625 0 -1.140625 -0.09375q-0.609375 -0.078125 -1.0625 -0.1875l-0.234375 -1.546875q0.40625 0.109375 0.828125 0.203125q0.421875 0.09375 0.8125 0.125q0.390625 0.03125 0.65625 0.03125q0.5 0 0.921875 -0.171875q0.421875 -0.171875 0.703125 -0.765625q0.296875 -0.640625 0.484375 -1.59375q0.203125 -0.96875 0.296875 -2.046875q0.109375 -1.078125 0.109375 -2.078125q0 -0.875 -0.25 -1.296875q-0.234375 -0.421875 -0.6875 -0.578125q-0.4375 -0.15625 -1.046875 -0.15625q-0.484375 0 -1.28125 0.0625q-0.796875 0.0625 -1.703125 0.15625q-0.90625 0.09375 -1.6875 0.1875q-0.78125 0.078125 -1.21875 0.140625q-0.3125 0.03125 -0.8125 0.09375q-0.484375 0.0625 -0.859375 0.125l-0.15625 -1.625zm21.78125 -2.796875q-0.078125 0.1875 -0.140625 0.421875q-0.046875 0.21875 -0.109375 0.453125q-0.09375 0.453125 -0.203125 1.171875q-0.109375 0.703125 -0.1875 1.5q-0.078125 0.78125 -0.125 1.53125q-0.046875 0.75 0 1.296875q0.453125 -1.203125 1.234375 -2.1875q0.78125 -0.984375 1.78125 -1.703125q1.0 -0.71875 2.15625 -1.09375q1.171875 -0.375 2.390625 -0.375q1.765625 0 2.984375 0.65625q1.234375 0.65625 1.890625 1.796875q0.671875 1.125 0.671875 2.5q0 1.53125 -0.640625 2.75q-0.625 1.21875 -1.90625 1.9375q-1.265625 0.71875 -3.1875 0.71875q-1.078125 0 -2.0625 -0.375q-0.984375 -0.390625 -1.78125 -1.109375q-0.796875 -0.734375 -1.3125 -1.78125l0.890625 -1.03125q0.453125 0.890625 1.046875 1.5625q0.59375 0.65625 1.390625 1.0q0.8125 0.34375 1.828125 0.34375q1.3125 0 2.28125 -0.46875q0.96875 -0.484375 1.5 -1.359375q0.53125 -0.890625 0.53125 -2.125q0 -1.03125 -0.453125 -1.875q-0.453125 -0.859375 -1.375 -1.359375q-0.921875 -0.515625 -2.34375 -0.515625q-1.453125 0 -2.65625 0.53125q-1.203125 0.53125 -2.109375 1.40625q-0.90625 0.875 -1.484375 1.921875q-0.578125 1.03125 -0.84375 2.015625q-0.0625 0.265625 -0.09375 0.5625q-0.03125 0.296875 -0.015625 0.59375q0 0.203125 0.046875 0.53125q0.046875 0.328125 0.09375 0.65625q0.046875 0.328125 0.09375 0.5625l-1.296875 0.203125q-0.25 -0.875 -0.421875 -2.1875q-0.171875 -1.3125 -0.171875 -2.640625q0 -0.78125 0.046875 -1.625q0.0625 -0.84375 0.140625 -1.625q0.09375 -0.796875 0.15625 -1.4375q0.078125 -0.640625 0.140625 -1.015625q0.015625 -0.25 0.015625 -0.453125q0.015625 -0.21875 0 -0.40625l1.609375 0.125zm6.421875 -1.53125q0.140625 0.65625 0.28125 1.734375q0.15625 1.078125 0.25 2.40625q0.109375 1.3125 0.109375 2.6875q0 1.453125 -0.1875 2.796875q-0.171875 1.328125 -0.578125 2.5q-0.40625 1.171875 -1.140625 2.15625q-0.71875 0.984375 -1.84375 1.703125l-1.375 -0.828125q1.09375 -0.578125 1.8125 -1.4375q0.71875 -0.875 1.140625 -1.953125q0.4375 -1.078125 0.609375 -2.328125q0.1875 -1.25 0.1875 -2.609375q0 -1.203125 -0.09375 -2.296875q-0.078125 -1.09375 -0.1875 -1.96875q-0.109375 -0.875 -0.234375 -1.359375q-0.046875 -0.328125 -0.140625 -0.625q-0.078125 -0.3125 -0.15625 -0.53125l1.546875 -0.046875zm11.812508 1.125q0.359375 0.015625 0.734375 0.03125q0.390625 0.015625 0.671875 0.015625q0.375 0 0.953125 -0.015625q0.59375 -0.015625 1.21875 -0.046875q0.640625 -0.046875 1.203125 -0.0625q0.5625 -0.03125 0.84375 -0.0625q0.28125 -0.03125 0.5 -0.078125q0.234375 -0.046875 0.421875 -0.125l0.9375 0.765625q-0.125 0.15625 -0.25 0.3125q-0.125 0.140625 -0.234375 0.3125q-0.296875 0.484375 -0.71875 1.375q-0.40625 0.875 -0.859375 1.921875q-0.453125 1.03125 -0.90625 1.984375q-0.28125 0.625 -0.609375 1.359375q-0.3125 0.734375 -0.65625 1.5q-0.328125 0.75 -0.65625 1.40625q-0.328125 0.65625 -0.625 1.078125q-0.515625 0.71875 -1.078125 1.015625q-0.546875 0.28125 -1.2812576 0.28125q-1.046875 0 -1.734375 -0.6875q-0.6875 -0.703125 -0.6875 -1.875q0 -1.046875 0.46875 -1.953125q0.484375 -0.90625 1.328125 -1.578125q0.8593826 -0.671875 2.0312576 -1.03125q1.1875 -0.375 2.609375 -0.375q1.5625 0 3.03125 0.359375q1.46875 0.359375 2.734375 0.9375q1.28125 0.5625 2.328125 1.1875q1.0625 0.625 1.8125 1.171875l-0.6875 1.59375q-0.828125 -0.703125 -1.859375 -1.40625q-1.015625 -0.703125 -2.234375 -1.28125q-1.203125 -0.578125 -2.5625 -0.921875q-1.34375 -0.359375 -2.78125 -0.359375q-1.53125 0 -2.625 0.515625q-1.09375 0.515625 -1.6718826 1.3125q-0.5625 0.78125 -0.5625 1.640625q0 0.625 0.34375 0.953125q0.34375 0.3125 0.7812576 0.3125q0.3125 0 0.578125 -0.140625q0.265625 -0.15625 0.53125 -0.5q0.3125 -0.40625 0.609375 -0.953125q0.296875 -0.5625 0.59375 -1.21875q0.296875 -0.65625 0.578125 -1.328125q0.28125 -0.671875 0.5625 -1.25q0.375 -0.8125 0.75 -1.6875q0.375 -0.890625 0.75 -1.703125q0.390625 -0.828125 0.71875 -1.5q-0.28125 0.03125 -0.796875 0.046875q-0.515625 0.015625 -1.109375 0.046875q-0.59375 0.03125 -1.125 0.0625q-0.53125 0.015625 -0.859375 0.03125q-0.296875 0.03125 -0.671875 0.0625q-0.359375 0.015625 -0.703125 0.0625l-0.078125 -1.515625zm11.671875 4.078125q-0.09375 1.984375 -0.40625 3.609375q-0.296875 1.625 -0.90625 2.9375q-0.609375 1.296875 -1.6875 2.328125q-1.0625 1.03125 -2.671875 1.84375l-1.234375 -1.03125q1.640625 -0.6875 2.65625 -1.640625q1.03125 -0.96875 1.59375 -2.078125q0.578125 -1.109375 0.8125 -2.25q0.234375 -1.140625 0.328125 -2.171875q0.015625 -0.421875 0.015625 -0.859375q0.015625 -0.453125 -0.015625 -0.84375l1.515625 0.15625zm4.625 0.59375l-0.484375 -0.796875q0.78125 -0.515625 1.171875 -1.109375q0.390625 -0.609375 0.390625 -1.515625l-0.25 -1.359375l0.875 1.03125q-0.203125 0.1875 -0.390625 0.28125q-0.1875 0.09375 -0.40625 0.09375q-0.421875 0 -0.765625 -0.265625q-0.328125 -0.265625 -0.328125 -0.796875q0 -0.515625 0.296875 -0.8125q0.3125 -0.296875 0.796875 -0.296875q0.625 0 0.96875 0.484375q0.34375 0.484375 0.34375 1.375q0 1.234375 -0.578125 2.15625q-0.5625 0.90625 -1.640625 1.53125zm3.65625 0l-0.484375 -0.796875q0.78125 -0.515625 1.171875 -1.109375q0.40625 -0.609375 0.40625 -1.515625l-0.234375 -1.359375l0.84375 1.03125q-0.171875 0.1875 -0.359375 0.28125q-0.1875 0.09375 -0.4375 0.09375q-0.421875 0 -0.765625 -0.265625q-0.328125 -0.265625 -0.328125 -0.796875q0 -0.515625 0.3125 -0.8125q0.3125 -0.296875 0.78125 -0.296875q0.640625 0 0.96875 0.484375q0.34375 0.484375 0.34375 1.375q0 1.234375 -0.5625 2.15625q-0.5625 0.90625 -1.65625 1.53125z" fill-rule="nonzero"/><path fill="#eeeeee" d="m17.984304 124.67609c-1.0975513 -3.6912766 2.5058117 -7.3454285 9.281057 -9.411865c6.7752457 -2.0664368 15.534149 -2.1827621 22.560005 -0.29960632l0 0c2.488636 -2.146408 7.043728 -3.6283646 12.28738 -3.997589c5.2436523 -0.36921692 10.559952 0.41767883 14.340744 2.1226425l0 0c2.1200638 -1.9460373 6.282913 -3.2535324 11.01133 -3.4585037c4.728424 -0.20497131 9.353203 0.72158813 12.2332 2.450882l0 0c3.8302917 -2.062683 9.924339 -2.9311447 15.645233 -2.2296066c5.720886 0.7015381 10.041107 2.8470764 11.091293 5.508232l0 0c4.692543 0.58582306 8.601326 2.075035 10.716454 4.0828857c2.1151428 2.007843 2.2291412 4.3373566 0.31254578 6.3866806c4.6211395 2.752449 5.702194 6.4200974 2.839737 9.634209c-2.8624573 3.2141266 -9.238373 5.4918213 -16.748314 5.9830933c-0.05293274 3.0166626 -3.667717 5.7847137 -9.451035 7.237213c-5.783325 1.4524841 -12.832077 1.3625946 -18.429314 -0.23501587c-2.384163 3.6129608 -9.09491 6.2713623 -17.232918 6.8266296c-8.1380005 0.5552826 -16.244347 -1.092102 -20.81675 -4.2304077l0 0c-5.6047783 1.5468597 -12.3300705 1.9924622 -18.658768 1.2362976c-6.328697 -0.75616455 -11.72769 -2.650406 -14.9790535 -5.255417l0 0c-5.727339 0.30674744 -11.264899 -1.0513306 -13.8644285 -3.400238c-2.5995288 -2.3489075 -1.707653 -5.188629 2.232995 -7.1098175l0 0c-5.1092114 -1.3762512 -7.7162485 -4.1072083 -6.46164 -6.7687683c1.2546086 -2.6615677 6.0865626 -4.650627 11.976181 -4.9299545z" fill-rule="evenodd"/><path fill="#eeeeee" d="m152.19815 113.810844c0 0.7040024 -0.5707092 1.2747116 -1.274704 1.2747116c-0.70401 0 -1.2747192 -0.5707092 -1.2747192 -1.2747116c0 -0.70401 0.5707092 -1.2747192 1.2747192 -1.2747192c0.70399475 0 1.274704 0.5707092 1.274704 1.2747192z" fill-rule="evenodd"/><path fill="#eeeeee" d="m147.11806 115.3454l0 0c0 1.4080124 -1.1414185 2.5494308 -2.5494232 2.5494308c-1.40802 0 -2.5494385 -1.1414185 -2.5494385 -2.5494308c0 -1.4080124 1.1414185 -2.5494308 2.5494385 -2.5494308c1.4080048 0 2.5494232 1.1414185 2.5494232 2.5494308z" fill-rule="evenodd"/><path fill="#eeeeee" d="m139.55977 117.478386c0 2.1120224 -1.7121277 3.82415 -3.8241425 3.82415c-2.1120148 0 -3.8241577 -1.7121277 -3.8241577 -3.82415c0 -2.1120148 1.712143 -3.8241425 3.8241577 -3.8241425c2.1120148 0 3.8241425 1.7121277 3.8241425 3.8241425z" fill-rule="evenodd"/><path fill="#000000" fill-opacity="0.0" d="m20.483465 137.18295l0 0c-2.7856045 0.09979248 -5.5709057 -0.19480896 -7.9819384 -0.84425354m15.024404 10.083405c-1.1201477 0.20405579 -2.2943077 0.33992004 -3.492199 0.40408325m33.58335 4.0353546l0 0c-0.84249115 -0.5782471 -1.5478668 -1.1961517 -2.1041107 -1.8432007m41.015697 -2.7530365c-0.12388611 0.6858673 -0.40550995 1.3637848 -0.8401642 2.0224762m17.545967 -14.518646l0 0c6.3154297 1.4065552 10.300873 4.3471527 10.244522 7.558777m13.920097 -15.609367c-1.0227814 1.093605 -2.5841522 2.0637283 -4.561722 2.8342972m-6.3847656 -13.351082l0 0c0.17428589 0.44163513 0.25494385 0.8899002 0.24085999 1.3385925m-29.374214 -2.8999863l0 0c0.5943985 -0.6175461 1.3815842 -1.192543 2.3370667 -1.7070847m-24.194756 2.5204773l0 0c0.24249268 -0.51034546 0.6226959 -1.0048904 1.1318512 -1.4722519m-26.784355 1.9724503l0 0c1.4866638 0.39847565 2.86203 0.8780823 4.095894 1.4282837m-35.20514 9.797119l0 0c-0.32453156 -0.4915161 -0.56355286 -0.9940109 -0.7148266 -1.5027771" fill-rule="evenodd"/><path stroke="#595959" stroke-width="1.0" stroke-linejoin="round" stroke-linecap="butt" d="m17.984304 124.67609c-1.0975513 -3.6912766 2.5058117 -7.3454285 9.281057 -9.411865c6.7752457 -2.0664368 15.534149 -2.1827621 22.560005 -0.29960632l0 0c2.488636 -2.146408 7.043728 -3.6283646 12.28738 -3.997589c5.2436523 -0.36921692 10.559952 0.41767883 14.340744 2.1226425l0 0c2.1200638 -1.9460373 6.282913 -3.2535324 11.01133 -3.4585037c4.728424 -0.20497131 9.353203 0.72158813 12.2332 2.450882l0 0c3.8302917 -2.062683 9.924339 -2.9311447 15.645233 -2.2296066c5.720886 0.7015381 10.041107 2.8470764 11.091293 5.508232l0 0c4.692543 0.58582306 8.601326 2.075035 10.716454 4.0828857c2.1151428 2.007843 2.2291412 4.3373566 0.31254578 6.3866806c4.6211395 2.752449 5.702194 6.4200974 2.839737 9.634209c-2.8624573 3.2141266 -9.238373 5.4918213 -16.748314 5.9830933c-0.05293274 3.0166626 -3.667717 5.7847137 -9.451035 7.237213c-5.783325 1.4524841 -12.832077 1.3625946 -18.429314 -0.23501587c-2.384163 3.6129608 -9.09491 6.2713623 -17.232918 6.8266296c-8.1380005 0.5552826 -16.244347 -1.092102 -20.81675 -4.2304077l0 0c-5.6047783 1.5468597 -12.3300705 1.9924622 -18.658768 1.2362976c-6.328697 -0.75616455 -11.72769 -2.650406 -14.9790535 -5.255417l0 0c-5.727339 0.30674744 -11.264899 -1.0513306 -13.8644285 -3.400238c-2.5995288 -2.3489075 -1.707653 -5.188629 2.232995 -7.1098175l0 0c-5.1092114 -1.3762512 -7.7162485 -4.1072083 -6.46164 -6.7687683c1.2546086 -2.6615677 6.0865626 -4.650627 11.976181 -4.9299545z" fill-rule="evenodd"/><path stroke="#595959" stroke-width="1.0" stroke-linejoin="round" stroke-linecap="butt" d="m152.19815 113.810844c0 0.7040024 -0.5707092 1.2747116 -1.274704 1.2747116c-0.70401 0 -1.2747192 -0.5707092 -1.2747192 -1.2747116c0 -0.70401 0.5707092 -1.2747192 1.2747192 -1.2747192c0.70399475 0 1.274704 0.5707092 1.274704 1.2747192z" fill-rule="evenodd"/><path stroke="#595959" stroke-width="1.0" stroke-linejoin="round" stroke-linecap="butt" d="m147.11806 115.3454l0 0c0 1.4080124 -1.1414185 2.5494308 -2.5494232 2.5494308c-1.40802 0 -2.5494385 -1.1414185 -2.5494385 -2.5494308c0 -1.4080124 1.1414185 -2.5494308 2.5494385 -2.5494308c1.4080048 0 2.5494232 1.1414185 2.5494232 2.5494308z" fill-rule="evenodd"/><path stroke="#595959" stroke-width="1.0" stroke-linejoin="round" stroke-linecap="butt" d="m139.55977 117.478386c0 2.1120224 -1.7121277 3.82415 -3.8241425 3.82415c-2.1120148 0 -3.8241577 -1.7121277 -3.8241577 -3.82415c0 -2.1120148 1.712143 -3.8241425 3.8241577 -3.8241425c2.1120148 0 3.8241425 1.7121277 3.8241425 3.8241425z" fill-rule="evenodd"/><path stroke="#595959" stroke-width="1.0" stroke-linejoin="round" stroke-linecap="butt" d="m20.483465 137.18295l0 0c-2.7856045 0.09979248 -5.5709057 -0.19480896 -7.9819384 -0.84425354m15.024404 10.083405c-1.1201477 0.20405579 -2.2943077 0.33992004 -3.492199 0.40408325m33.58335 4.0353546l0 0c-0.84249115 -0.5782471 -1.5478668 -1.1961517 -2.1041107 -1.8432007m41.015697 -2.7530365c-0.12388611 0.6858673 -0.40550995 1.3637848 -0.8401642 2.0224762m17.545967 -14.518646l0 0c6.3154297 1.4065552 10.300873 4.3471527 10.244522 7.558777m13.920097 -15.609367c-1.0227814 1.093605 -2.5841522 2.0637283 -4.561722 2.8342972m-6.3847656 -13.351082l0 0c0.17428589 0.44163513 0.25494385 0.8899002 0.24085999 1.3385925m-29.374214 -2.8999863l0 0c0.5943985 -0.6175461 1.3815842 -1.192543 2.3370667 -1.7070847m-24.194756 2.5204773l0 0c0.24249268 -0.51034546 0.6226959 -1.0048904 1.1318512 -1.4722519m-26.784355 1.9724503l0 0c1.4866638 0.39847565 2.86203 0.8780823 4.095894 1.4282837m-35.20514 9.797119l0 0c-0.32453156 -0.4915161 -0.56355286 -0.9940109 -0.7148266 -1.5027771" fill-rule="evenodd"/><path fill="#000000" d="m44.09472 129.3025q-0.640625 0 -0.984375 -0.484375q-0.34375 -0.484375 -0.34375 -1.4062576q0 -1.234375 0.578125 -2.140625q0.578125 -0.921875 1.640625 -1.53125l0.484375 0.796875q-0.78125 0.53125 -1.171875 1.125q-0.390625 0.59375 -0.390625 1.515625l0.25 1.3750076l-0.890625 -1.0781326q0.21875 -0.1875 0.390625 -0.265625q0.171875 -0.09375 0.4375 -0.09375q0.421875 0 0.75 0.265625q0.328125 0.265625 0.328125 0.7812576q0 0.546875 -0.3125 0.84375q-0.296875 0.296875 -0.765625 0.296875zm3.65625 0q-0.609375 0 -0.96875 -0.484375q-0.34375 -0.484375 -0.34375 -1.4062576q0 -1.234375 0.5625 -2.140625q0.578125 -0.921875 1.671875 -1.53125l0.453125 0.796875q-0.765625 0.53125 -1.15625 1.125q-0.390625 0.59375 -0.390625 1.515625l0.234375 1.3750076l-0.859375 -1.0781326q0.1875 -0.1875 0.359375 -0.265625q0.1875 -0.09375 0.4375 -0.09375q0.421875 0 0.75 0.265625q0.34375 0.265625 0.34375 0.7812576q0 0.546875 -0.3125 0.84375q-0.296875 0.296875 -0.78125 0.296875zm3.9055634 -1.203125l16.0625 0l0 1.234375l-16.0625 0l0 -1.234375zm1.4375 -3.3125076l10.59375 0l0 1.1875l-10.59375 0l0 -1.1875zm4.734375 -2.203125l1.375 0l0 6.1250076l-1.375 0l0 -6.1250076zm7.015625 7.9218826l0.890625 0.984375q-1.171875 0.3125 -2.703125 0.5625q-1.515625 0.234375 -3.15625 0.421875q-1.625 0.1875 -3.15625 0.296875q-0.03125 -0.21875 -0.140625 -0.5q-0.09375 -0.296875 -0.1875 -0.484375q1.09375 -0.09375 2.265625 -0.21875q1.1875 -0.140625 2.3125 -0.296875q1.140625 -0.15625 2.140625 -0.34375q1.0 -0.203125 1.734375 -0.421875zm0.96875 -7.0625076l1.140625 0.65625q-1.890625 2.265625 -4.328125 4.1875076q-2.4375 1.90625 -5.203125 3.4375q-2.765625 1.515625 -5.640625 2.609375q-0.09375 -0.140625 -0.265625 -0.359375q-0.15625 -0.21875 -0.328125 -0.421875q-0.171875 -0.203125 -0.328125 -0.328125q2.9375 -1.015625 5.6875 -2.46875q2.75 -1.46875 5.125 -3.3125076q2.390625 -1.859375 4.140625 -4.0zm-9.640625 7.1250076l1.390625 0.15625q-0.203125 0.90625 -0.453125 1.921875q-0.234375 1.0 -0.484375 1.953125q-0.234375 0.9375 -0.453125 1.640625l-1.40625 -0.203125q0.25 -0.703125 0.5 -1.640625q0.25 -0.953125 0.484375 -1.953125q0.25 -1.015625 0.421875 -1.875zm8.125 3.5625l1.421875 0q0 0 -0.015625 0.125q0 0.125 -0.015625 0.28125q-0.015625 0.140625 -0.046875 0.234375q-0.203125 1.375 -0.4375 2.28125q-0.21875 0.90625 -0.46875 1.4375q-0.25 0.546875 -0.546875 0.828125q-0.296875 0.265625 -0.625 0.359375q-0.328125 0.09375 -0.828125 0.09375q-0.40625 0.03125 -1.1875 0.015625q-0.78125 -0.015625 -1.65625 -0.0625q-0.015625 -0.296875 -0.140625 -0.65625q-0.109375 -0.359375 -0.28125 -0.640625q0.875 0.09375 1.6875 0.109375q0.8125 0.03125 1.140625 0.03125q0.28125 0 0.46875 -0.03125q0.1875 -0.03125 0.34375 -0.15625q0.34375 -0.28125 0.625 -1.203125q0.296875 -0.9375 0.5625 -2.859375l0 -0.1875zm-8.34375 0l8.734375 0l0 1.203125l-9.03125 0l0.296875 -1.203125zm18.96875 -10.593758q0.75 0.171875 1.734375 0.328125q1.0 0.15625 2.046875 0.296875q1.046875 0.140625 1.984375 0.234375q0.9375 0.078125 1.59375 0.125l-0.203125 1.390625q-0.6875 -0.0625 -1.609375 -0.171875q-0.921875 -0.109375 -1.9375 -0.234375q-1.0 -0.140625 -2.0 -0.296875q-1.0 -0.15625 -1.859375 -0.3125l0.25 -1.359375zm7.734375 5.3281326q-0.265625 0.1875 -0.5625 0.4375q-0.296875 0.234375 -0.46875 0.40625q-0.28125 0.25 -0.75 0.6875q-0.46875 0.4375 -1.0 0.953125q-0.53125 0.5 -1.015625 0.953125q-0.46875 0.453125 -0.734375 0.734375q0.140625 -0.03125 0.359375 -0.015625q0.21875 0.015625 0.359375 0.046875q0.546875 0.0625 0.890625 0.421875q0.34375 0.34375 0.53125 0.921875q0.09375 0.265625 0.1875 0.640625q0.109375 0.375 0.21875 0.75q0.125 0.375 0.21875 0.703125q0.1875 0.515625 0.53125 0.765625q0.359375 0.234375 1.078125 0.234375q0.640625 0 1.28125 -0.046875q0.640625 -0.046875 1.234375 -0.140625q0.59375 -0.09375 1.015625 -0.1875l-0.09375 1.578125q-0.390625 0.046875 -1.03125 0.109375q-0.625 0.078125 -1.296875 0.125q-0.65625 0.046875 -1.171875 0.046875q-1.125 0 -1.828125 -0.34375q-0.6875 -0.328125 -1.0 -1.25q-0.09375 -0.28125 -0.21875 -0.703125q-0.109375 -0.421875 -0.21875 -0.828125q-0.09375 -0.40625 -0.1875 -0.671875q-0.171875 -0.484375 -0.46875 -0.734375q-0.28125 -0.25 -0.671875 -0.25q-0.390625 0 -0.734375 0.1875q-0.328125 0.171875 -0.640625 0.484375q-0.21875 0.203125 -0.578125 0.546875q-0.34375 0.34375 -0.765625 0.8125q-0.421875 0.453125 -0.875 0.953125q-0.4375 0.484375 -0.84375 0.96875q-0.40625 0.46875 -0.734375 0.875l-1.40625 -0.984375q0.15625 -0.15625 0.390625 -0.359375q0.25 -0.21875 0.53125 -0.484375q0.1875 -0.1875 0.6875 -0.6875q0.515625 -0.515625 1.234375 -1.21875q0.71875 -0.71875 1.515625 -1.53125q0.796875 -0.8125 1.59375 -1.609375q0.8125 -0.796875 1.484375 -1.484375q0.6875 -0.6875 1.15625 -1.15625q-0.4375 0.015625 -1.046875 0.0625q-0.609375 0.046875 -1.28125 0.109375q-0.671875 0.0625 -1.328125 0.125q-0.65625 0.046875 -1.203125 0.078125q-0.546875 0.03125 -0.890625 0.078125q-0.46875 0.03125 -0.828125 0.078125q-0.359375 0.046875 -0.6875 0.109375l-0.125 -1.640625q0.3125 0.015625 0.71875 0.03125q0.421875 0.015625 0.875 0q0.3125 0 0.953125 -0.03125q0.65625 -0.046875 1.484375 -0.09375q0.84375 -0.0625 1.671875 -0.125q0.84375 -0.0625 1.5625 -0.109375q0.71875 -0.0625 1.125 -0.125q0.25 -0.03125 0.5 -0.07813263q0.265625 -0.0625 0.40625 -0.125l0.890625 1.0000076zm6.8906174 0.390625l-0.484375 -0.796875q0.78125 -0.5156326 1.171875 -1.1093826q0.390625 -0.609375 0.390625 -1.515625l-0.25 -1.359375l0.875 1.03125q-0.203125 0.1875 -0.390625 0.28125q-0.1875 0.09375 -0.40625 0.09375q-0.421875 0 -0.765625 -0.265625q-0.328125 -0.265625 -0.328125 -0.796875q0 -0.515625 0.296875 -0.8125q0.3125 -0.296875 0.796875 -0.296875q0.625 0 0.96875 0.484375q0.34375 0.484375 0.34375 1.375q0 1.234375 -0.578125 2.15625q-0.5625 0.9062576 -1.640625 1.5312576zm3.65625 0l-0.484375 -0.796875q0.78125 -0.5156326 1.171875 -1.1093826q0.40625 -0.609375 0.40625 -1.515625l-0.234375 -1.359375l0.84375 1.03125q-0.171875 0.1875 -0.359375 0.28125q-0.1875 0.09375 -0.4375 0.09375q-0.421875 0 -0.765625 -0.265625q-0.328125 -0.265625 -0.328125 -0.796875q0 -0.515625 0.3125 -0.8125q0.3125 -0.296875 0.78125 -0.296875q0.640625 0 0.96875 0.484375q0.34375 0.484375 0.34375 1.375q0 1.234375 -0.5625 2.15625q-0.5625 0.9062576 -1.65625 1.5312576z" fill-rule="nonzero"/></g></svg>